RobotoSerifTextWide-Regular-10.ufo
<glyph name="A" format="1">
  <advance width="814"/>
  <unicode hex="0041"/>
  <outline>
    <contour>
      <point x="215" y="301" type="line"/>
      <point x="209" y="243" type="line"/>
      <point x="572" y="243" type="line"/>
      <point x="571" y="301" type="line"/>
    </contour>
    <contour>
      <point x="379" y="662" type="line"/>
      <point x="630" y="59" type="line"/>
      <point x="630" y="53"/>
      <point x="581" y="49"/>
      <point x="543" y="49" type="curve" smooth="yes"/>
      <point x="523" y="49" type="line"/>
      <point x="523" y="0" type="line"/>
      <point x="804" y="0" type="line"/>
      <point x="804" y="49" type="line"/>
      <point x="798" y="49" type="line" smooth="yes"/>
      <point x="761" y="49"/>
      <point x="737" y="53"/>
      <point x="726" y="77" type="curve" smooth="yes"/>
      <point x="461" y="710" type="line"/>
      <point x="349" y="710" type="line"/>
      <point x="93" y="92" type="line" smooth="yes"/>
      <point x="79" y="57"/>
      <point x="57" y="49"/>
      <point x="16" y="49" type="curve" smooth="yes"/>
      <point x="10" y="49" type="line"/>
      <point x="10" y="0" type="line"/>
      <point x="261" y="0" type="line"/>
      <point x="261" y="49" type="line"/>
      <point x="243" y="49" type="line" smooth="yes"/>
      <point x="204" y="49"/>
      <point x="158" y="56"/>
      <point x="158" y="68" type="curve"/>
      <point x="392" y="656" type="line"/>
    </contour>
    <contour>
      <point x="405" y="721" type="move" name="top"/>
    </contour>
    <contour>
      <point x="645" y="0" type="move" name="right"/>
    </contour>
    <contour>
      <point x="405" y="0" type="move" name="bottom"/>
    </contour>
  </outline>
</glyph>
<glyph name="B" format="1">
  <advance width="771"/>
  <unicode hex="0042"/>
  <outline>
    <contour>
      <point x="412" y="710" type="curve" smooth="yes"/>
      <point x="58" y="710" type="line"/>
      <point x="58" y="661" type="line"/>
      <point x="71" y="661" type="line" smooth="yes"/>
      <point x="123" y="661"/>
      <point x="161" y="654"/>
      <point x="161" y="625" type="curve" smooth="yes"/>
      <point x="161" y="85" type="line" smooth="yes"/>
      <point x="161" y="56"/>
      <point x="123" y="49"/>
      <point x="71" y="49" type="curve" smooth="yes"/>
      <point x="58" y="49" type="line"/>
      <point x="58" y="0" type="line"/>
      <point x="424" y="0" type="line" smooth="yes"/>
      <point x="607" y="0"/>
      <point x="713" y="76"/>
      <point x="713" y="199" type="curve" smooth="yes"/>
      <point x="713" y="317"/>
      <point x="609" y="387"/>
      <point x="416" y="388" type="curve"/>
      <point x="490" y="352" type="line"/>
      <point x="490" y="398" type="line"/>
      <point x="407" y="362" type="line"/>
      <point x="583" y="362"/>
      <point x="677" y="431"/>
      <point x="677" y="533" type="curve" smooth="yes"/>
      <point x="677" y="644"/>
      <point x="587" y="710"/>
    </contour>
    <contour>
      <point x="260" y="59" type="line"/>
      <point x="260" y="651" type="line"/>
      <point x="412" y="651" type="line" smooth="yes"/>
      <point x="524" y="651"/>
      <point x="576" y="609"/>
      <point x="576" y="531" type="curve" smooth="yes"/>
      <point x="576" y="458"/>
      <point x="529" y="401"/>
      <point x="409" y="401" type="curve" smooth="yes"/>
      <point x="238" y="401" type="line"/>
      <point x="238" y="343" type="line"/>
      <point x="425" y="343" type="line" smooth="yes"/>
      <point x="555" y="343"/>
      <point x="610" y="286"/>
      <point x="610" y="201" type="curve" smooth="yes"/>
      <point x="610" y="109"/>
      <point x="550" y="59"/>
      <point x="422" y="59" type="curve" smooth="yes"/>
    </contour>
  </outline>
</glyph>
<glyph name="C" format="1">
  <advance width="831"/>
  <unicode hex="0043"/>
  <outline>
    <contour>
      <point x="438" y="656" type="curve" smooth="yes"/>
      <point x="576" y="656"/>
      <point x="661" y="593"/>
      <point x="703" y="500" type="curve"/>
      <point x="773" y="500" type="line"/>
      <point x="773" y="710" type="line"/>
      <point x="711" y="710" type="line"/>
      <point x="691" y="556" type="line"/>
      <point x="730" y="555" type="line"/>
      <point x="689" y="659"/>
      <point x="595" y="720"/>
      <point x="437" y="720" type="curve" smooth="yes"/>
      <point x="225" y="720"/>
      <point x="50" y="569"/>
      <point x="50" y="355" type="curve" smooth="yes"/>
      <point x="50" y="138"/>
      <point x="215" y="-10"/>
      <point x="449" y="-10" type="curve" smooth="yes"/>
      <point x="628" y="-10"/>
      <point x="747" y="87"/>
      <point x="792" y="231" type="curve"/>
      <point x="728" y="257" type="line"/>
      <point x="694" y="140"/>
      <point x="601" y="54"/>
      <point x="457" y="54" type="curve" smooth="yes"/>
      <point x="272" y="54"/>
      <point x="155" y="173"/>
      <point x="155" y="355" type="curve" smooth="yes"/>
      <point x="155" y="537"/>
      <point x="282" y="656"/>
    </contour>
  </outline>
</glyph>
<glyph name="D" format="1">
  <advance width="882"/>
  <unicode hex="0044"/>
  <outline>
    <contour>
      <point x="411" y="649" type="line" smooth="yes"/>
      <point x="608" y="649"/>
      <point x="727" y="544"/>
      <point x="727" y="357" type="curve" smooth="yes"/>
      <point x="727" y="170"/>
      <point x="608" y="61"/>
      <point x="411" y="61" type="curve" smooth="yes"/>
      <point x="260" y="61" type="line"/>
      <point x="260" y="649" type="line"/>
    </contour>
    <contour>
      <point x="58" y="0" type="line"/>
      <point x="411" y="0" type="line" smooth="yes"/>
      <point x="665" y="0"/>
      <point x="832" y="140"/>
      <point x="832" y="357" type="curve" smooth="yes"/>
      <point x="832" y="577"/>
      <point x="668" y="710"/>
      <point x="411" y="710" type="curve" smooth="yes"/>
      <point x="58" y="710" type="line"/>
      <point x="58" y="661" type="line"/>
      <point x="71" y="661" type="line" smooth="yes"/>
      <point x="123" y="661"/>
      <point x="161" y="654"/>
      <point x="161" y="625" type="curve" smooth="yes"/>
      <point x="161" y="85" type="line" smooth="yes"/>
      <point x="161" y="56"/>
      <point x="123" y="49"/>
      <point x="71" y="49" type="curve" smooth="yes"/>
      <point x="58" y="49" type="line"/>
    </contour>
    <contour>
      <point x="445" y="741" type="move" name="top"/>
    </contour>
    <contour>
      <point x="447" y="0" type="move" name="bottom"/>
    </contour>
  </outline>
</glyph>
<glyph name="E" format="1">
  <advance width="749"/>
  <unicode hex="0045"/>
  <outline>
    <contour>
      <point x="684" y="208" type="line"/>
      <point x="623" y="208" type="line"/>
      <point x="614" y="116" type="line" smooth="yes"/>
      <point x="609" y="70"/>
      <point x="580" y="61"/>
      <point x="466" y="61" type="curve" smooth="yes"/>
      <point x="260" y="61" type="line"/>
      <point x="260" y="649" type="line"/>
      <point x="431" y="649" type="line" smooth="yes"/>
      <point x="543" y="649"/>
      <point x="575" y="643"/>
      <point x="582" y="589" type="curve" smooth="yes"/>
      <point x="589" y="527" type="line"/>
      <point x="649" y="527" type="line"/>
      <point x="649" y="710" type="line"/>
      <point x="58" y="710" type="line"/>
      <point x="58" y="661" type="line"/>
      <point x="71" y="661" type="line" smooth="yes"/>
      <point x="123" y="661"/>
      <point x="161" y="654"/>
      <point x="161" y="625" type="curve" smooth="yes"/>
      <point x="161" y="85" type="line" smooth="yes"/>
      <point x="161" y="56"/>
      <point x="123" y="49"/>
      <point x="71" y="49" type="curve" smooth="yes"/>
      <point x="58" y="49" type="line"/>
      <point x="58" y="0" type="line"/>
      <point x="684" y="0" type="line"/>
    </contour>
    <contour>
      <point x="226" y="391" type="curve"/>
      <point x="226" y="336" type="line"/>
      <point x="331" y="333"/>
      <point x="435" y="330"/>
      <point x="536" y="327" type="curve"/>
      <point x="536" y="399" type="line"/>
      <point x="433" y="395"/>
      <point x="330" y="393"/>
    </contour>
    <contour>
      <point x="435" y="741" type="move" name="top"/>
    </contour>
    <contour>
      <point x="509" y="0" type="move" name="right"/>
    </contour>
    <contour>
      <point x="435" y="0" type="move" name="bottom"/>
    </contour>
  </outline>
</glyph>
<glyph name="F" format="1">
  <advance width="697"/>
  <unicode hex="0046"/>
  <outline>
    <contour>
      <point x="260" y="649" type="line"/>
      <point x="429" y="649" type="line" smooth="yes"/>
      <point x="553" y="649"/>
      <point x="573" y="642"/>
      <point x="579" y="593" type="curve" smooth="yes"/>
      <point x="587" y="527" type="line"/>
      <point x="647" y="527" type="line"/>
      <point x="647" y="710" type="line"/>
      <point x="58" y="710" type="line"/>
      <point x="58" y="661" type="line"/>
      <point x="71" y="661" type="line" smooth="yes"/>
      <point x="123" y="661"/>
      <point x="161" y="654"/>
      <point x="161" y="625" type="curve" smooth="yes"/>
      <point x="161" y="85" type="line" smooth="yes"/>
      <point x="161" y="56"/>
      <point x="123" y="49"/>
      <point x="71" y="49" type="curve" smooth="yes"/>
      <point x="58" y="49" type="line"/>
      <point x="58" y="0" type="line"/>
      <point x="385" y="0" type="line"/>
      <point x="385" y="49" type="line"/>
      <point x="365" y="49" type="line" smooth="yes"/>
      <point x="317" y="49"/>
      <point x="260" y="50"/>
      <point x="260" y="85" type="curve" smooth="yes"/>
    </contour>
    <contour>
      <point x="227" y="384" type="curve"/>
      <point x="227" y="329" type="line"/>
      <point x="333" y="326"/>
      <point x="440" y="323"/>
      <point x="546" y="320" type="curve"/>
      <point x="546" y="392" type="line"/>
      <point x="440" y="389"/>
      <point x="333" y="386"/>
    </contour>
  </outline>
</glyph>
<glyph name="G" format="1">
  <advance width="892"/>
  <unicode hex="0047"/>
  <outline>
    <contour>
      <point x="785" y="269" type="line" smooth="yes"/>
      <point x="785" y="298"/>
      <point x="819" y="305"/>
      <point x="863" y="305" type="curve" smooth="yes"/>
      <point x="868" y="305" type="line"/>
      <point x="868" y="354" type="line"/>
      <point x="587" y="354" type="line"/>
      <point x="587" y="305" type="line"/>
      <point x="599" y="305" type="line" smooth="yes"/>
      <point x="651" y="305"/>
      <point x="689" y="298"/>
      <point x="689" y="269" type="curve" smooth="yes"/>
      <point x="689" y="118" type="line"/>
      <point x="665" y="99"/>
      <point x="599" y="54"/>
      <point x="472" y="54" type="curve" smooth="yes"/>
      <point x="275" y="54"/>
      <point x="155" y="167"/>
      <point x="155" y="355" type="curve" smooth="yes"/>
      <point x="155" y="537"/>
      <point x="269" y="656"/>
      <point x="444" y="656" type="curve" smooth="yes"/>
      <point x="589" y="656"/>
      <point x="674" y="592"/>
      <point x="717" y="500" type="curve"/>
      <point x="787" y="500" type="line"/>
      <point x="787" y="710" type="line"/>
      <point x="725" y="710" type="line"/>
      <point x="706" y="557" type="line"/>
      <point x="743" y="556" type="line"/>
      <point x="706" y="653"/>
      <point x="599" y="720"/>
      <point x="444" y="720" type="curve" smooth="yes"/>
      <point x="215" y="720"/>
      <point x="50" y="569"/>
      <point x="50" y="355" type="curve" smooth="yes"/>
      <point x="50" y="137"/>
      <point x="217" y="-10"/>
      <point x="471" y="-10" type="curve" smooth="yes"/>
      <point x="621" y="-10"/>
      <point x="740" y="50"/>
      <point x="785" y="100" type="curve"/>
    </contour>
    <contour>
      <point x="454" y="741" type="move" name="top"/>
    </contour>
    <contour>
      <point x="454" y="0" type="move" name="bottom"/>
    </contour>
  </outline>
</glyph>
<glyph name="H" format="1">
  <advance width="959"/>
  <unicode hex="0048"/>
  <outline>
    <contour>
      <point x="227" y="396" type="line"/>
      <point x="227" y="336" type="line"/>
      <point x="736" y="336" type="line"/>
      <point x="736" y="396" type="line"/>
    </contour>
    <contour>
      <point x="58" y="0" type="line"/>
      <point x="363" y="0" type="line"/>
      <point x="363" y="49" type="line"/>
      <point x="352" y="49" type="line" smooth="yes"/>
      <point x="312" y="49"/>
      <point x="260" y="52"/>
      <point x="260" y="59" type="curve" smooth="yes"/>
      <point x="260" y="651" type="line" smooth="yes"/>
      <point x="260" y="658"/>
      <point x="312" y="661"/>
      <point x="352" y="661" type="curve" smooth="yes"/>
      <point x="363" y="661" type="line"/>
      <point x="363" y="710" type="line"/>
      <point x="58" y="710" type="line"/>
      <point x="58" y="661" type="line"/>
      <point x="71" y="661" type="line" smooth="yes"/>
      <point x="123" y="661"/>
      <point x="161" y="654"/>
      <point x="161" y="625" type="curve" smooth="yes"/>
      <point x="161" y="85" type="line" smooth="yes"/>
      <point x="161" y="56"/>
      <point x="123" y="49"/>
      <point x="71" y="49" type="curve" smooth="yes"/>
      <point x="58" y="49" type="line"/>
    </contour>
    <contour>
      <point x="596" y="0" type="line"/>
      <point x="901" y="0" type="line"/>
      <point x="901" y="49" type="line"/>
      <point x="888" y="49" type="line" smooth="yes"/>
      <point x="836" y="49"/>
      <point x="798" y="56"/>
      <point x="798" y="85" type="curve" smooth="yes"/>
      <point x="798" y="625" type="line" smooth="yes"/>
      <point x="798" y="654"/>
      <point x="836" y="661"/>
      <point x="888" y="661" type="curve" smooth="yes"/>
      <point x="901" y="661" type="line"/>
      <point x="901" y="710" type="line"/>
      <point x="596" y="710" type="line"/>
      <point x="596" y="661" type="line"/>
      <point x="606" y="661" type="line" smooth="yes"/>
      <point x="647" y="661"/>
      <point x="699" y="658"/>
      <point x="699" y="651" type="curve" smooth="yes"/>
      <point x="699" y="59" type="line" smooth="yes"/>
      <point x="699" y="52"/>
      <point x="647" y="49"/>
      <point x="606" y="49" type="curve" smooth="yes"/>
      <point x="596" y="49" type="line"/>
    </contour>
    <contour>
      <point x="480" y="741" type="move" name="top"/>
    </contour>
    <contour>
      <point x="480" y="0" type="move" name="bottom"/>
    </contour>
  </outline>
</glyph>
<glyph name="I" format="1">
  <advance width="420"/>
  <unicode hex="0049"/>
  <outline>
    <contour>
      <point x="161" y="85" type="line" smooth="yes"/>
      <point x="161" y="56"/>
      <point x="123" y="49"/>
      <point x="71" y="49" type="curve" smooth="yes"/>
      <point x="58" y="49" type="line"/>
      <point x="58" y="0" type="line"/>
      <point x="363" y="0" type="line"/>
      <point x="363" y="49" type="line"/>
      <point x="350" y="49" type="line" smooth="yes"/>
      <point x="298" y="49"/>
      <point x="260" y="56"/>
      <point x="260" y="85" type="curve" smooth="yes"/>
      <point x="260" y="625" type="line" smooth="yes"/>
      <point x="260" y="654"/>
      <point x="298" y="661"/>
      <point x="350" y="661" type="curve" smooth="yes"/>
      <point x="363" y="661" type="line"/>
      <point x="363" y="710" type="line"/>
      <point x="58" y="710" type="line"/>
      <point x="58" y="661" type="line"/>
      <point x="71" y="661" type="line" smooth="yes"/>
      <point x="123" y="661"/>
      <point x="161" y="654"/>
      <point x="161" y="625" type="curve" smooth="yes"/>
    </contour>
    <contour>
      <point x="211" y="741" type="move" name="top"/>
    </contour>
    <contour>
      <point x="278" y="0" type="move" name="right"/>
    </contour>
    <contour>
      <point x="211" y="0" type="move" name="bottom"/>
    </contour>
  </outline>
</glyph>
<glyph name="J" format="1">
  <advance width="646"/>
  <unicode hex="004A"/>
  <outline>
    <contour>
      <point x="278" y="710" type="line"/>
      <point x="278" y="661" type="line"/>
      <point x="303" y="661" type="line" smooth="yes"/>
      <point x="355" y="661"/>
      <point x="393" y="654"/>
      <point x="393" y="625" type="curve" smooth="yes"/>
      <point x="393" y="231" type="line" smooth="yes"/>
      <point x="393" y="89"/>
      <point x="337" y="52"/>
      <point x="244" y="52" type="curve" smooth="yes"/>
      <point x="176" y="52"/>
      <point x="129" y="72"/>
      <point x="107" y="101" type="curve"/>
      <point x="86" y="100"/>
      <point x="92" y="66"/>
      <point x="135" y="62" type="curve"/>
      <point x="135" y="163" type="line"/>
      <point x="34" y="163" type="line"/>
      <point x="34" y="54" type="line"/>
      <point x="77" y="17"/>
      <point x="150" y="-10"/>
      <point x="244" y="-10" type="curve" smooth="yes"/>
      <point x="393" y="-10"/>
      <point x="489" y="50"/>
      <point x="489" y="231" type="curve" smooth="yes"/>
      <point x="489" y="625" type="line" smooth="yes"/>
      <point x="489" y="654"/>
      <point x="527" y="661"/>
      <point x="579" y="661" type="curve" smooth="yes"/>
      <point x="592" y="661" type="line"/>
      <point x="592" y="710" type="line"/>
    </contour>
    <contour>
      <point x="436" y="741" type="move" name="top"/>
    </contour>
  </outline>
</glyph>
<glyph name="K" format="1">
  <advance width="835"/>
  <unicode hex="004B"/>
  <outline>
    <contour>
      <point x="58" y="0" type="line"/>
      <point x="363" y="0" type="line"/>
      <point x="363" y="49" type="line"/>
      <point x="352" y="49" type="line" smooth="yes"/>
      <point x="312" y="49"/>
      <point x="260" y="52"/>
      <point x="260" y="59" type="curve" smooth="yes"/>
      <point x="260" y="651" type="line" smooth="yes"/>
      <point x="260" y="658"/>
      <point x="312" y="661"/>
      <point x="352" y="661" type="curve" smooth="yes"/>
      <point x="363" y="661" type="line"/>
      <point x="363" y="710" type="line"/>
      <point x="58" y="710" type="line"/>
      <point x="58" y="661" type="line"/>
      <point x="71" y="661" type="line" smooth="yes"/>
      <point x="123" y="661"/>
      <point x="161" y="654"/>
      <point x="161" y="625" type="curve" smooth="yes"/>
      <point x="161" y="85" type="line" smooth="yes"/>
      <point x="161" y="56"/>
      <point x="123" y="49"/>
      <point x="71" y="49" type="curve" smooth="yes"/>
      <point x="58" y="49" type="line"/>
    </contour>
    <contour>
      <point x="506" y="0" type="line"/>
      <point x="814" y="0" type="line"/>
      <point x="814" y="49" type="line"/>
      <point x="801" y="49" type="line" smooth="yes"/>
      <point x="753" y="49"/>
      <point x="736" y="56"/>
      <point x="706" y="85" type="curve" smooth="yes"/>
      <point x="375" y="401" type="line"/>
      <point x="375" y="357" type="line"/>
      <point x="679" y="632" type="line" smooth="yes"/>
      <point x="703" y="654"/>
      <point x="726" y="661"/>
      <point x="762" y="661" type="curve" smooth="yes"/>
      <point x="781" y="661" type="line"/>
      <point x="781" y="710" type="line"/>
      <point x="518" y="710" type="line"/>
      <point x="518" y="661" type="line"/>
      <point x="529" y="661" type="line" smooth="yes"/>
      <point x="568" y="661"/>
      <point x="610" y="657"/>
      <point x="612" y="650" type="curve"/>
      <point x="299" y="364" type="line"/>
      <point x="299" y="346" type="line"/>
      <point x="603" y="59" type="line"/>
      <point x="603" y="52"/>
      <point x="555" y="49"/>
      <point x="517" y="49" type="curve" smooth="yes"/>
      <point x="506" y="49" type="line"/>
    </contour>
    <contour>
      <point x="434" y="741" type="move" name="top"/>
    </contour>
    <contour>
      <point x="434" y="0" type="move" name="bottom"/>
    </contour>
  </outline>
</glyph>
<glyph name="L" format="1">
  <advance width="716"/>
  <unicode hex="004C"/>
  <outline>
    <contour>
      <point x="367" y="710" type="line"/>
      <point x="367" y="661" type="line"/>
      <point x="355" y="661" type="line" smooth="yes"/>
      <point x="299" y="661"/>
      <point x="260" y="654"/>
      <point x="260" y="625" type="curve" smooth="yes"/>
      <point x="260" y="61" type="line"/>
      <point x="446" y="61" type="line" smooth="yes"/>
      <point x="562" y="61"/>
      <point x="589" y="68"/>
      <point x="594" y="117" type="curve" smooth="yes"/>
      <point x="604" y="215" type="line"/>
      <point x="668" y="215" type="line"/>
      <point x="668" y="0" type="line"/>
      <point x="58" y="0" type="line"/>
      <point x="58" y="49" type="line"/>
      <point x="71" y="49" type="line" smooth="yes"/>
      <point x="123" y="49"/>
      <point x="161" y="56"/>
      <point x="161" y="85" type="curve" smooth="yes"/>
      <point x="161" y="625" type="line" smooth="yes"/>
      <point x="161" y="654"/>
      <point x="123" y="661"/>
      <point x="71" y="661" type="curve" smooth="yes"/>
      <point x="58" y="661" type="line"/>
      <point x="58" y="710" type="line"/>
    </contour>
    <contour>
      <point x="436" y="741" type="move" name="top"/>
    </contour>
    <contour>
      <point x="543" y="710" type="move" name="right"/>
    </contour>
    <contour>
      <point x="547" y="410" type="move" name="mid"/>
    </contour>
    <contour>
      <point x="438" y="0" type="move" name="bottom"/>
    </contour>
  </outline>
</glyph>
<glyph name="M" format="1">
  <advance width="1109"/>
  <unicode hex="004D"/>
  <outline>
    <contour>
      <point x="58" y="0" type="line"/>
      <point x="322" y="0" type="line"/>
      <point x="322" y="49" type="line"/>
      <point x="318" y="49" type="line" smooth="yes"/>
      <point x="283" y="49"/>
      <point x="231" y="52"/>
      <point x="231" y="59" type="curve" smooth="yes"/>
      <point x="231" y="676" type="line"/>
      <point x="220" y="687" type="line"/>
      <point x="508" y="-2" type="line"/>
      <point x="572" y="-2" type="line"/>
      <point x="860" y="686" type="line"/>
      <point x="849" y="688" type="line"/>
      <point x="849" y="59" type="line" smooth="yes"/>
      <point x="849" y="52"/>
      <point x="807" y="49"/>
      <point x="769" y="49" type="curve" smooth="yes"/>
      <point x="758" y="49" type="line"/>
      <point x="758" y="0" type="line"/>
      <point x="1051" y="0" type="line"/>
      <point x="1051" y="49" type="line"/>
      <point x="1038" y="49" type="line" smooth="yes"/>
      <point x="987" y="49"/>
      <point x="948" y="56"/>
      <point x="948" y="85" type="curve" smooth="yes"/>
      <point x="948" y="625" type="line" smooth="yes"/>
      <point x="948" y="654"/>
      <point x="987" y="661"/>
      <point x="1038" y="661" type="curve" smooth="yes"/>
      <point x="1051" y="661" type="line"/>
      <point x="1051" y="710" type="line"/>
      <point x="798" y="710" type="line"/>
      <point x="544" y="105" type="line"/>
      <point x="566" y="97" type="line"/>
      <point x="316" y="710" type="line"/>
      <point x="58" y="710" type="line"/>
      <point x="58" y="661" type="line"/>
      <point x="71" y="661" type="line" smooth="yes"/>
      <point x="123" y="661"/>
      <point x="161" y="654"/>
      <point x="161" y="625" type="curve" smooth="yes"/>
      <point x="161" y="85" type="line" smooth="yes"/>
      <point x="161" y="56"/>
      <point x="123" y="49"/>
      <point x="71" y="49" type="curve"/>
      <point x="58" y="49" type="line"/>
    </contour>
    <contour>
      <point x="535" y="0" type="move" name="bottom"/>
    </contour>
  </outline>
</glyph>
<glyph name="N" format="1">
  <advance width="922"/>
  <unicode hex="004E"/>
  <outline>
    <contour>
      <point x="58" y="0" type="line"/>
      <point x="346" y="0" type="line"/>
      <point x="346" y="49" type="line"/>
      <point x="329" y="49" type="line" smooth="yes"/>
      <point x="284" y="49"/>
      <point x="231" y="57"/>
      <point x="231" y="64" type="curve" smooth="yes"/>
      <point x="231" y="673" type="line"/>
      <point x="216" y="670" type="line"/>
      <point x="669" y="0" type="line"/>
      <point x="768" y="0" type="line"/>
      <point x="768" y="620" type="line" smooth="yes"/>
      <point x="768" y="650"/>
      <point x="807" y="661"/>
      <point x="858" y="661" type="curve" smooth="yes"/>
      <point x="872" y="661" type="line"/>
      <point x="872" y="710" type="line"/>
      <point x="584" y="710" type="line"/>
      <point x="584" y="661" type="line"/>
      <point x="600" y="661" type="line" smooth="yes"/>
      <point x="646" y="661"/>
      <point x="698" y="653"/>
      <point x="698" y="646" type="curve" smooth="yes"/>
      <point x="698" y="96" type="line"/>
      <point x="713" y="98" type="line"/>
      <point x="303" y="710" type="line"/>
      <point x="58" y="710" type="line"/>
      <point x="58" y="661" type="line"/>
      <point x="71" y="661" type="line" smooth="yes"/>
      <point x="123" y="661"/>
      <point x="161" y="654"/>
      <point x="161" y="625" type="curve" smooth="yes"/>
      <point x="161" y="90" type="line" smooth="yes"/>
      <point x="161" y="61"/>
      <point x="123" y="49"/>
      <point x="71" y="49" type="curve" smooth="yes"/>
      <point x="58" y="49" type="line"/>
    </contour>
    <contour>
      <point x="471" y="741" type="move" name="top"/>
    </contour>
    <contour>
      <point x="471" y="0" type="move" name="bottom"/>
    </contour>
  </outline>
</glyph>
<glyph name="O" format="1">
  <advance width="918"/>
  <unicode hex="004F"/>
  <outline>
    <contour>
      <point x="459" y="720" type="curve" smooth="yes"/>
      <point x="232" y="720"/>
      <point x="50" y="572"/>
      <point x="50" y="355" type="curve" smooth="yes"/>
      <point x="50" y="139"/>
      <point x="232" y="-10"/>
      <point x="459" y="-10" type="curve" smooth="yes"/>
      <point x="686" y="-10"/>
      <point x="868" y="139"/>
      <point x="868" y="355" type="curve" smooth="yes"/>
      <point x="868" y="572"/>
      <point x="686" y="720"/>
    </contour>
    <contour>
      <point x="459" y="52" type="curve" smooth="yes"/>
      <point x="286" y="52"/>
      <point x="155" y="169"/>
      <point x="155" y="355" type="curve" smooth="yes"/>
      <point x="155" y="541"/>
      <point x="285" y="658"/>
      <point x="459" y="658" type="curve" smooth="yes"/>
      <point x="632" y="658"/>
      <point x="763" y="541"/>
      <point x="763" y="355" type="curve" smooth="yes"/>
      <point x="763" y="169"/>
      <point x="632" y="52"/>
    </contour>
    <contour>
      <point x="459" y="741" type="move" name="top"/>
    </contour>
    <contour>
      <point x="459" y="0" type="move" name="bottom"/>
    </contour>
  </outline>
</glyph>
<glyph name="P" format="1">
  <advance width="739"/>
  <unicode hex="0050"/>
  <outline>
    <contour>
      <point x="58" y="0" type="line"/>
      <point x="372" y="0" type="line"/>
      <point x="372" y="49" type="line"/>
      <point x="341" y="49" type="line" smooth="yes"/>
      <point x="306" y="49"/>
      <point x="260" y="52"/>
      <point x="260" y="59" type="curve"/>
      <point x="260" y="649" type="line"/>
      <point x="402" y="649" type="line" smooth="yes"/>
      <point x="531" y="649"/>
      <point x="594" y="594"/>
      <point x="594" y="499" type="curve" smooth="yes"/>
      <point x="594" y="404"/>
      <point x="531" y="341"/>
      <point x="396" y="341" type="curve" smooth="yes"/>
      <point x="240" y="341" type="line"/>
      <point x="240" y="282" type="line"/>
      <point x="398" y="282" type="line" smooth="yes"/>
      <point x="587" y="282"/>
      <point x="700" y="374"/>
      <point x="700" y="501" type="curve" smooth="yes"/>
      <point x="700" y="628"/>
      <point x="595" y="710"/>
      <point x="404" y="710" type="curve" smooth="yes"/>
      <point x="58" y="710" type="line"/>
      <point x="58" y="661" type="line"/>
      <point x="71" y="661" type="line" smooth="yes"/>
      <point x="123" y="661"/>
      <point x="161" y="654"/>
      <point x="161" y="625" type="curve" smooth="yes"/>
      <point x="161" y="85" type="line" smooth="yes"/>
      <point x="161" y="56"/>
      <point x="123" y="49"/>
      <point x="71" y="49" type="curve" smooth="yes"/>
      <point x="58" y="49" type="line"/>
    </contour>
  </outline>
</glyph>
<glyph name="Q" format="1">
  <advance width="918"/>
  <unicode hex="0051"/>
  <outline>
    <contour>
      <point x="419" y="3" type="line"/>
      <point x="412" y="-144"/>
      <point x="516" y="-187"/>
      <point x="666" y="-187" type="curve" smooth="yes"/>
      <point x="720" y="-187"/>
      <point x="772" y="-180"/>
      <point x="821" y="-168" type="curve"/>
      <point x="821" y="-73" type="line"/>
      <point x="767" y="-92"/>
      <point x="719" y="-104"/>
      <point x="654" y="-104" type="curve" smooth="yes"/>
      <point x="552" y="-104"/>
      <point x="487" y="-82"/>
      <point x="493" y="10" type="curve"/>
    </contour>
    <contour>
      <point x="459" y="720" type="curve" smooth="yes"/>
      <point x="232" y="720"/>
      <point x="50" y="572"/>
      <point x="50" y="355" type="curve" smooth="yes"/>
      <point x="50" y="139"/>
      <point x="232" y="-10"/>
      <point x="459" y="-10" type="curve" smooth="yes"/>
      <point x="686" y="-10"/>
      <point x="868" y="139"/>
      <point x="868" y="355" type="curve" smooth="yes"/>
      <point x="868" y="572"/>
      <point x="686" y="720"/>
    </contour>
    <contour>
      <point x="459" y="52" type="curve" smooth="yes"/>
      <point x="286" y="52"/>
      <point x="155" y="169"/>
      <point x="155" y="355" type="curve" smooth="yes"/>
      <point x="155" y="541"/>
      <point x="285" y="658"/>
      <point x="459" y="658" type="curve" smooth="yes"/>
      <point x="632" y="658"/>
      <point x="763" y="541"/>
      <point x="763" y="355" type="curve" smooth="yes"/>
      <point x="763" y="169"/>
      <point x="632" y="52"/>
    </contour>
  </outline>
</glyph>
<glyph name="R" format="1">
  <advance width="796"/>
  <unicode hex="0052"/>
  <outline>
    <contour>
      <point x="411" y="321" type="line"/>
      <point x="504" y="336" type="line"/>
      <point x="678" y="77" type="line" smooth="yes"/>
      <point x="693" y="55"/>
      <point x="721" y="49"/>
      <point x="759" y="49" type="curve" smooth="yes"/>
      <point x="770" y="49" type="line"/>
      <point x="770" y="0" type="line"/>
      <point x="612" y="0" type="line"/>
    </contour>
    <contour>
      <point x="58" y="0" type="line"/>
      <point x="58" y="49" type="line"/>
      <point x="71" y="49" type="line" smooth="yes"/>
      <point x="123" y="49"/>
      <point x="161" y="56"/>
      <point x="161" y="85" type="curve" smooth="yes"/>
      <point x="161" y="625" type="line" smooth="yes"/>
      <point x="161" y="654"/>
      <point x="123" y="661"/>
      <point x="71" y="661" type="curve" smooth="yes"/>
      <point x="58" y="661" type="line"/>
      <point x="58" y="710" type="line"/>
      <point x="393" y="710" type="line" smooth="yes"/>
      <point x="577" y="710"/>
      <point x="682" y="632"/>
      <point x="682" y="506" type="curve" smooth="yes"/>
      <point x="682" y="409"/>
      <point x="604" y="334"/>
      <point x="480" y="310" type="curve" smooth="yes"/>
      <point x="448" y="304"/>
      <point x="415" y="300"/>
      <point x="378" y="300" type="curve" smooth="yes"/>
      <point x="238" y="300" type="line"/>
      <point x="238" y="358" type="line"/>
      <point x="378" y="358" type="line" smooth="yes"/>
      <point x="510" y="358"/>
      <point x="576" y="414"/>
      <point x="576" y="506" type="curve" smooth="yes"/>
      <point x="576" y="594"/>
      <point x="512" y="649"/>
      <point x="391" y="649" type="curve" smooth="yes"/>
      <point x="260" y="649" type="line"/>
      <point x="260" y="59" type="line" smooth="yes"/>
      <point x="260" y="52"/>
      <point x="305" y="49"/>
      <point x="340" y="49" type="curve" smooth="yes"/>
      <point x="354" y="49" type="line"/>
      <point x="354" y="0" type="line"/>
    </contour>
    <contour>
      <point x="447" y="741" type="move" name="top"/>
    </contour>
    <contour>
      <point x="447" y="0" type="move" name="bottom"/>
    </contour>
  </outline>
</glyph>
<glyph name="S" format="1">
  <advance width="715"/>
  <unicode hex="0053"/>
  <outline>
    <contour>
      <point x="402" y="52" type="curve" smooth="yes"/>
      <point x="271" y="52"/>
      <point x="165" y="122"/>
      <point x="125" y="222" type="curve"/>
      <point x="54" y="222" type="line"/>
      <point x="54" y="0" type="line"/>
      <point x="118" y="0" type="line"/>
      <point x="134" y="167" type="line"/>
      <point x="122" y="173"/>
      <point x="106" y="175"/>
      <point x="87" y="175" type="curve"/>
      <point x="140" y="43"/>
      <point x="265" y="-10"/>
      <point x="406" y="-10" type="curve" smooth="yes"/>
      <point x="551" y="-10"/>
      <point x="661" y="65"/>
      <point x="661" y="197" type="curve" smooth="yes"/>
      <point x="661" y="333"/>
      <point x="542" y="374"/>
      <point x="400" y="410" type="curve" smooth="yes"/>
      <point x="283" y="439"/>
      <point x="177" y="453"/>
      <point x="177" y="549" type="curve" smooth="yes"/>
      <point x="177" y="618"/>
      <point x="229" y="659"/>
      <point x="328" y="659" type="curve" smooth="yes"/>
      <point x="432" y="659"/>
      <point x="514" y="606"/>
      <point x="551" y="524" type="curve"/>
      <point x="620" y="524" type="line"/>
      <point x="620" y="710" type="line"/>
      <point x="559" y="710" type="line"/>
      <point x="542" y="569" type="line"/>
      <point x="555" y="564"/>
      <point x="578" y="564"/>
      <point x="582" y="570" type="curve"/>
      <point x="532" y="685"/>
      <point x="432" y="720"/>
      <point x="319" y="720" type="curve" smooth="yes"/>
      <point x="185" y="720"/>
      <point x="86" y="651"/>
      <point x="86" y="537" type="curve" smooth="yes"/>
      <point x="86" y="395"/>
      <point x="214" y="358"/>
      <point x="342" y="326" type="curve" smooth="yes"/>
      <point x="472" y="294"/>
      <point x="567" y="277"/>
      <point x="567" y="175" type="curve" smooth="yes"/>
      <point x="567" y="90"/>
      <point x="504" y="52"/>
    </contour>
    <contour>
      <point x="397" y="741" type="move" name="top"/>
    </contour>
    <contour>
      <point x="397" y="0" type="move" name="bottom"/>
    </contour>
  </outline>
</glyph>
<glyph name="T" format="1">
  <advance width="783"/>
  <unicode hex="0054"/>
  <outline>
    <contour>
      <point x="342" y="85" type="line" smooth="yes"/>
      <point x="342" y="56"/>
      <point x="300" y="49"/>
      <point x="242" y="49" type="curve" smooth="yes"/>
      <point x="223" y="49" type="line"/>
      <point x="223" y="0" type="line"/>
      <point x="560" y="0" type="line"/>
      <point x="560" y="49" type="line"/>
      <point x="541" y="49" type="line" smooth="yes"/>
      <point x="484" y="49"/>
      <point x="441" y="56"/>
      <point x="441" y="85" type="curve" smooth="yes"/>
      <point x="441" y="652" type="line"/>
      <point x="524" y="652" type="line" smooth="yes"/>
      <point x="636" y="652"/>
      <point x="666" y="644"/>
      <point x="671" y="603" type="curve" smooth="yes"/>
      <point x="681" y="514" type="line"/>
      <point x="741" y="514" type="line"/>
      <point x="741" y="710" type="line"/>
      <point x="42" y="710" type="line"/>
      <point x="42" y="514" type="line"/>
      <point x="102" y="514" type="line"/>
      <point x="112" y="603" type="line" smooth="yes"/>
      <point x="117" y="646"/>
      <point x="147" y="652"/>
      <point x="260" y="652" type="curve" smooth="yes"/>
      <point x="342" y="652" type="line"/>
    </contour>
    <contour>
      <point x="392" y="741" type="move" name="top"/>
    </contour>
    <contour>
      <point x="396" y="0" type="move" name="bottom"/>
    </contour>
  </outline>
</glyph>
<glyph name="U" format="1">
  <advance width="936"/>
  <unicode hex="0055"/>
  <outline>
    <contour>
      <point x="258" y="259" type="curve" smooth="yes"/>
      <point x="258" y="651" type="line" smooth="yes"/>
      <point x="258" y="658"/>
      <point x="310" y="661"/>
      <point x="350" y="661" type="curve" smooth="yes"/>
      <point x="361" y="661" type="line"/>
      <point x="361" y="710" type="line"/>
      <point x="56" y="710" type="line"/>
      <point x="56" y="661" type="line"/>
      <point x="69" y="661" type="line" smooth="yes"/>
      <point x="121" y="661"/>
      <point x="159" y="654"/>
      <point x="159" y="625" type="curve" smooth="yes"/>
      <point x="159" y="259" type="line" smooth="yes"/>
      <point x="159" y="68"/>
      <point x="292" y="-10"/>
      <point x="475" y="-10" type="curve" smooth="yes"/>
      <point x="643" y="-10"/>
      <point x="777" y="68"/>
      <point x="777" y="258" type="curve" smooth="yes"/>
      <point x="777" y="616" type="line" smooth="yes"/>
      <point x="777" y="650"/>
      <point x="815" y="661"/>
      <point x="867" y="661" type="curve" smooth="yes"/>
      <point x="880" y="661" type="line"/>
      <point x="880" y="710" type="line"/>
      <point x="604" y="710" type="line"/>
      <point x="604" y="661" type="line"/>
      <point x="615" y="661" type="line" smooth="yes"/>
      <point x="655" y="661"/>
      <point x="707" y="653"/>
      <point x="707" y="639" type="curve" smooth="yes"/>
      <point x="707" y="259" type="line" smooth="yes"/>
      <point x="707" y="106"/>
      <point x="613" y="59"/>
      <point x="487" y="59" type="curve" smooth="yes"/>
      <point x="354" y="59"/>
      <point x="258" y="108"/>
    </contour>
    <contour>
      <point x="472" y="741" type="move" name="top"/>
    </contour>
    <contour>
      <point x="537" y="0" type="move" name="right"/>
    </contour>
    <contour>
      <point x="472" y="0" type="move" name="bottom"/>
    </contour>
  </outline>
</glyph>
<glyph name="V" format="1">
  <advance width="808"/>
  <unicode hex="0056"/>
  <outline>
    <contour>
      <point x="436" y="40" type="line"/>
      <point x="185" y="651" type="line"/>
      <point x="185" y="658"/>
      <point x="231" y="661"/>
      <point x="271" y="661" type="curve" smooth="yes"/>
      <point x="291" y="661" type="line"/>
      <point x="291" y="710" type="line"/>
      <point x="10" y="710" type="line"/>
      <point x="10" y="661" type="line"/>
      <point x="16" y="661" type="line"/>
      <point x="53" y="661"/>
      <point x="76" y="659"/>
      <point x="87" y="633" type="curve" smooth="yes"/>
      <point x="350" y="0" type="line"/>
      <point x="461" y="0" type="line"/>
      <point x="715" y="618" type="line" smooth="yes"/>
      <point x="730" y="655"/>
      <point x="751" y="661"/>
      <point x="792" y="661" type="curve"/>
      <point x="798" y="661" type="line"/>
      <point x="798" y="710" type="line"/>
      <point x="547" y="710" type="line"/>
      <point x="547" y="661" type="line"/>
      <point x="564" y="661" type="line" smooth="yes"/>
      <point x="605" y="661"/>
      <point x="654" y="654"/>
      <point x="654" y="643" type="curve"/>
      <point x="411" y="45" type="line"/>
    </contour>
  </outline>
</glyph>
<glyph name="W" format="1">
  <advance width="1171"/>
  <unicode hex="0057"/>
  <outline>
    <contour>
      <point x="10" y="710" type="line"/>
      <point x="10" y="661" type="line"/>
      <point x="16" y="661" type="line" smooth="yes"/>
      <point x="57" y="661"/>
      <point x="82" y="658"/>
      <point x="92" y="625" type="curve" smooth="yes"/>
      <point x="291" y="0" type="line"/>
      <point x="399" y="0" type="line"/>
      <point x="595" y="640" type="line"/>
      <point x="572" y="640" type="line"/>
      <point x="788" y="0" type="line"/>
      <point x="896" y="0" type="line"/>
      <point x="1079" y="618" type="line" smooth="yes"/>
      <point x="1090" y="652"/>
      <point x="1117" y="661"/>
      <point x="1155" y="661" type="curve" smooth="yes"/>
      <point x="1161" y="661" type="line"/>
      <point x="1161" y="710" type="line"/>
      <point x="910" y="710" type="line"/>
      <point x="910" y="661" type="line"/>
      <point x="927" y="661" type="line" smooth="yes"/>
      <point x="968" y="661"/>
      <point x="1015" y="654"/>
      <point x="1015" y="643" type="curve"/>
      <point x="845" y="57" type="line"/>
      <point x="867" y="57" type="line"/>
      <point x="649" y="710" type="line"/>
      <point x="546" y="710" type="line"/>
      <point x="348" y="54" type="line"/>
      <point x="373" y="54" type="line"/>
      <point x="187" y="651" type="line"/>
      <point x="187" y="658"/>
      <point x="232" y="661"/>
      <point x="270" y="661" type="curve" smooth="yes"/>
      <point x="290" y="661" type="line"/>
      <point x="290" y="710" type="line"/>
    </contour>
    <contour>
      <point x="601" y="741" type="move" name="top"/>
    </contour>
  </outline>
</glyph>
<glyph name="X" format="1">
  <advance width="846"/>
  <unicode hex="0058"/>
  <outline>
    <contour>
      <point x="49" y="661" type="line"/>
      <point x="56" y="661" type="line" smooth="yes"/>
      <point x="97" y="661"/>
      <point x="120" y="658"/>
      <point x="143" y="629" type="curve" smooth="yes"/>
      <point x="381" y="338" type="line"/>
      <point x="388" y="334" type="line"/>
      <point x="622" y="59" type="line"/>
      <point x="622" y="52"/>
      <point x="575" y="49"/>
      <point x="536" y="49" type="curve" smooth="yes"/>
      <point x="516" y="49" type="line"/>
      <point x="516" y="0" type="line"/>
      <point x="818" y="0" type="line"/>
      <point x="818" y="49" type="line"/>
      <point x="806" y="49" type="line" smooth="yes"/>
      <point x="765" y="49"/>
      <point x="745" y="53"/>
      <point x="719" y="83" type="curve" smooth="yes"/>
      <point x="465" y="387" type="line"/>
      <point x="458" y="390" type="line"/>
      <point x="241" y="651" type="line"/>
      <point x="241" y="658"/>
      <point x="285" y="661"/>
      <point x="322" y="661" type="curve" smooth="yes"/>
      <point x="342" y="661" type="line"/>
      <point x="342" y="710" type="line"/>
      <point x="49" y="710" type="line"/>
    </contour>
    <contour>
      <point x="28" y="0" type="line"/>
      <point x="299" y="0" type="line"/>
      <point x="299" y="49" type="line"/>
      <point x="282" y="49" type="line" smooth="yes"/>
      <point x="243" y="49"/>
      <point x="194" y="56"/>
      <point x="194" y="67" type="curve"/>
      <point x="426" y="334" type="line"/>
      <point x="386" y="379" type="line"/>
      <point x="136" y="95" type="line" smooth="yes"/>
      <point x="105" y="59"/>
      <point x="81" y="49"/>
      <point x="40" y="49" type="curve" smooth="yes"/>
      <point x="28" y="49" type="line"/>
    </contour>
    <contour>
      <point x="461" y="356" type="line"/>
      <point x="686" y="616" type="line" smooth="yes"/>
      <point x="717" y="652"/>
      <point x="745" y="661"/>
      <point x="787" y="661" type="curve" smooth="yes"/>
      <point x="793" y="661" type="line"/>
      <point x="793" y="710" type="line"/>
      <point x="527" y="710" type="line"/>
      <point x="527" y="661" type="line"/>
      <point x="544" y="661" type="line" smooth="yes"/>
      <point x="583" y="661"/>
      <point x="629" y="654"/>
      <point x="629" y="643" type="curve"/>
      <point x="419" y="397" type="line"/>
    </contour>
  </outline>
</glyph>
<glyph name="Y" format="1">
  <advance width="796"/>
  <unicode hex="0059"/>
  <outline>
    <contour>
      <point x="350" y="316" type="line"/>
      <point x="350" y="85" type="line" smooth="yes"/>
      <point x="350" y="56"/>
      <point x="312" y="49"/>
      <point x="260" y="49" type="curve" smooth="yes"/>
      <point x="242" y="49" type="line"/>
      <point x="242" y="0" type="line"/>
      <point x="558" y="0" type="line"/>
      <point x="558" y="49" type="line"/>
      <point x="539" y="49" type="line" smooth="yes"/>
      <point x="488" y="49"/>
      <point x="450" y="56"/>
      <point x="450" y="85" type="curve" smooth="yes"/>
      <point x="450" y="316" type="line"/>
      <point x="434" y="269" type="line"/>
      <point x="678" y="620" type="line" smooth="yes"/>
      <point x="703" y="657"/>
      <point x="737" y="661"/>
      <point x="775" y="661" type="curve" smooth="yes"/>
      <point x="781" y="661" type="line"/>
      <point x="781" y="710" type="line"/>
      <point x="517" y="710" type="line"/>
      <point x="517" y="661" type="line"/>
      <point x="534" y="661" type="line" smooth="yes"/>
      <point x="575" y="661"/>
      <point x="621" y="654"/>
      <point x="621" y="643" type="curve"/>
      <point x="400" y="322" type="line"/>
      <point x="436" y="322" type="line"/>
      <point x="204" y="651" type="line"/>
      <point x="204" y="658"/>
      <point x="245" y="661"/>
      <point x="281" y="661" type="curve" smooth="yes"/>
      <point x="301" y="661" type="line"/>
      <point x="301" y="710" type="line"/>
      <point x="15" y="710" type="line"/>
      <point x="15" y="661" type="line"/>
      <point x="21" y="661" type="line" smooth="yes"/>
      <point x="59" y="661"/>
      <point x="87" y="661"/>
      <point x="105" y="635" type="curve" smooth="yes"/>
      <point x="366" y="271" type="line"/>
    </contour>
    <contour>
      <point x="401" y="741" type="move" name="top"/>
    </contour>
    <contour>
      <point x="401" y="0" type="move" name="bottom"/>
    </contour>
  </outline>
</glyph>
<glyph name="Z" format="1">
  <advance width="718"/>
  <unicode hex="005A"/>
  <outline>
    <contour>
      <point x="104" y="61" type="line"/>
      <point x="122" y="18" type="line"/>
      <point x="652" y="643" type="line"/>
      <point x="652" y="710" type="line"/>
      <point x="71" y="710" type="line"/>
      <point x="71" y="522" type="line"/>
      <point x="131" y="522" type="line"/>
      <point x="141" y="609" type="line" smooth="yes"/>
      <point x="145" y="643"/>
      <point x="187" y="649"/>
      <point x="288" y="649" type="curve" smooth="yes"/>
      <point x="590" y="649" type="line"/>
      <point x="568" y="680" type="line"/>
      <point x="51" y="70" type="line"/>
      <point x="51" y="0" type="line"/>
      <point x="664" y="0" type="line"/>
      <point x="664" y="204" type="line"/>
      <point x="602" y="204" type="line"/>
      <point x="592" y="102" type="line" smooth="yes"/>
      <point x="589" y="68"/>
      <point x="546" y="61"/>
      <point x="445" y="61" type="curve" smooth="yes"/>
    </contour>
    <contour>
      <point x="379" y="741" type="move" name="top"/>
    </contour>
    <contour>
      <point x="379" y="0" type="move" name="bottom"/>
    </contour>
  </outline>
</glyph>
<glyph name="a" format="1">
  <advance width="624"/>
  <unicode hex="0061"/>
  <outline>
    <contour>
      <point x="447" y="313" type="line"/>
      <point x="173" y="291"/>
      <point x="58" y="237"/>
      <point x="58" y="122" type="curve" smooth="yes"/>
      <point x="58" y="38"/>
      <point x="126" y="-10"/>
      <point x="228" y="-10" type="curve" smooth="yes"/>
      <point x="329" y="-10"/>
      <point x="404" y="39"/>
      <point x="444" y="114" type="curve"/>
      <point x="444" y="187" type="line"/>
      <point x="401" y="102"/>
      <point x="335" y="48"/>
      <point x="249" y="48" type="curve" smooth="yes"/>
      <point x="192" y="48"/>
      <point x="158" y="77"/>
      <point x="158" y="124" type="curve" smooth="yes"/>
      <point x="158" y="205"/>
      <point x="231" y="244"/>
      <point x="447" y="259" type="curve"/>
    </contour>
    <contour>
      <point x="429" y="0" type="line"/>
      <point x="602" y="0" type="line"/>
      <point x="602" y="47" type="line"/>
      <point x="599" y="47" type="line" smooth="yes"/>
      <point x="549" y="47"/>
      <point x="513" y="54"/>
      <point x="513" y="82" type="curve" smooth="yes"/>
      <point x="513" y="358" type="line" smooth="yes"/>
      <point x="513" y="477"/>
      <point x="411" y="518"/>
      <point x="304" y="518" type="curve" smooth="yes"/>
      <point x="202" y="518"/>
      <point x="126" y="482"/>
      <point x="92" y="458" type="curve"/>
      <point x="92" y="354" type="line"/>
      <point x="187" y="354" type="line"/>
      <point x="187" y="457" type="line"/>
      <point x="157" y="446"/>
      <point x="134" y="426"/>
      <point x="139" y="394" type="curve"/>
      <point x="169" y="429"/>
      <point x="220" y="460"/>
      <point x="298" y="460" type="curve" smooth="yes"/>
      <point x="375" y="460"/>
      <point x="419" y="433"/>
      <point x="419" y="351" type="curve" smooth="yes"/>
      <point x="419" y="114" type="line"/>
      <point x="429" y="111" type="line"/>
    </contour>
    <contour>
      <point x="286" y="553" type="move" name="top"/>
    </contour>
    <contour>
      <point x="467" y="-10" type="move" name="right"/>
    </contour>
    <contour>
      <point x="319" y="0" type="move" name="bottom"/>
    </contour>
  </outline>
</glyph>
<glyph name="b" format="1">
  <advance width="735"/>
  <unicode hex="0062"/>
  <outline>
    <contour>
      <point x="411" y="-10" type="curve" smooth="yes"/>
      <point x="576" y="-10"/>
      <point x="686" y="99"/>
      <point x="686" y="257" type="curve" smooth="yes"/>
      <point x="686" y="414"/>
      <point x="586" y="518"/>
      <point x="431" y="518" type="curve" smooth="yes"/>
      <point x="334" y="518"/>
      <point x="252" y="473"/>
      <point x="199" y="394" type="curve"/>
      <point x="199" y="309" type="line"/>
      <point x="253" y="410"/>
      <point x="327" y="458"/>
      <point x="419" y="458" type="curve" smooth="yes"/>
      <point x="528" y="458"/>
      <point x="586" y="381"/>
      <point x="586" y="257" type="curve" smooth="yes"/>
      <point x="586" y="133"/>
      <point x="524" y="50"/>
      <point x="408" y="50" type="curve" smooth="yes"/>
      <point x="320" y="50"/>
      <point x="252" y="94"/>
      <point x="199" y="191" type="curve"/>
      <point x="199" y="100" type="line"/>
      <point x="242" y="32"/>
      <point x="321" y="-10"/>
    </contour>
    <contour>
      <point x="121" y="643" type="curve" smooth="yes"/>
      <point x="121" y="-3" type="line"/>
      <point x="185" y="-3" type="line"/>
      <point x="206" y="106" type="line"/>
      <point x="216" y="120" type="line"/>
      <point x="216" y="735" type="line"/>
      <point x="31" y="735" type="line"/>
      <point x="31" y="687" type="line"/>
      <point x="44" y="685" type="line" smooth="yes"/>
      <point x="98" y="677"/>
      <point x="121" y="672"/>
    </contour>
  </outline>
</glyph>
<glyph name="c" format="1">
  <advance width="619"/>
  <unicode hex="0063"/>
  <outline>
    <contour>
      <point x="349" y="49" type="curve" smooth="yes"/>
      <point x="226" y="49"/>
      <point x="149" y="132"/>
      <point x="149" y="254" type="curve" smooth="yes"/>
      <point x="149" y="374"/>
      <point x="221" y="459"/>
      <point x="356" y="459" type="curve" smooth="yes"/>
      <point x="431" y="459"/>
      <point x="497" y="427"/>
      <point x="523" y="385" type="curve"/>
      <point x="533" y="417"/>
      <point x="508" y="437"/>
      <point x="475" y="442" type="curve"/>
      <point x="475" y="328" type="line"/>
      <point x="570" y="328" type="line"/>
      <point x="570" y="453" type="line"/>
      <point x="543" y="476"/>
      <point x="464" y="518"/>
      <point x="356" y="518" type="curve" smooth="yes"/>
      <point x="172" y="518"/>
      <point x="49" y="411"/>
      <point x="49" y="254" type="curve" smooth="yes"/>
      <point x="49" y="97"/>
      <point x="166" y="-10"/>
      <point x="344" y="-10" type="curve" smooth="yes"/>
      <point x="464" y="-10"/>
      <point x="533" y="45"/>
      <point x="583" y="112" type="curve"/>
      <point x="535" y="154" type="line"/>
      <point x="500" y="109"/>
      <point x="448" y="49"/>
    </contour>
    <contour>
      <point x="339" y="551" type="move" name="top"/>
    </contour>
    <contour>
      <point x="350" y="0" type="move" name="bottom"/>
    </contour>
  </outline>
</glyph>
<glyph name="d" format="1">
  <advance width="733"/>
  <unicode hex="0064"/>
  <outline>
    <contour>
      <point x="527" y="0" type="line"/>
      <point x="703" y="0" type="line"/>
      <point x="703" y="47" type="line"/>
      <point x="702" y="47" type="line"/>
      <point x="651" y="47"/>
      <point x="614" y="54"/>
      <point x="614" y="82" type="curve" smooth="yes"/>
      <point x="614" y="735" type="line"/>
      <point x="427" y="735" type="line"/>
      <point x="427" y="687" type="line"/>
      <point x="440" y="685" type="line" smooth="yes"/>
      <point x="494" y="677"/>
      <point x="519" y="672"/>
      <point x="519" y="643" type="curve" smooth="yes"/>
      <point x="519" y="115" type="line"/>
      <point x="527" y="112" type="line"/>
    </contour>
    <contour>
      <point x="325" y="518" type="curve" smooth="yes"/>
      <point x="159" y="518"/>
      <point x="49" y="409"/>
      <point x="49" y="250" type="curve" smooth="yes"/>
      <point x="49" y="94"/>
      <point x="153" y="-10"/>
      <point x="317" y="-10" type="curve" smooth="yes"/>
      <point x="415" y="-10"/>
      <point x="488" y="42"/>
      <point x="536" y="115" type="curve"/>
      <point x="536" y="202" type="line"/>
      <point x="482" y="102"/>
      <point x="415" y="50"/>
      <point x="324" y="50" type="curve" smooth="yes"/>
      <point x="210" y="50"/>
      <point x="149" y="127"/>
      <point x="149" y="250" type="curve" smooth="yes"/>
      <point x="149" y="375"/>
      <point x="211" y="458"/>
      <point x="328" y="458" type="curve" smooth="yes"/>
      <point x="417" y="458"/>
      <point x="490" y="412"/>
      <point x="536" y="320" type="curve"/>
      <point x="536" y="408" type="line"/>
      <point x="491" y="474"/>
      <point x="425" y="518"/>
    </contour>
    <contour>
      <point x="697" y="734" type="move" name="right"/>
    </contour>
    <contour>
      <point x="339" y="0" type="move" name="bottom"/>
    </contour>
  </outline>
</glyph>
<glyph name="e" format="1">
  <advance width="623"/>
  <unicode hex="0065"/>
  <outline>
    <contour>
      <point x="341" y="-10" type="curve" smooth="yes"/>
      <point x="448" y="-10"/>
      <point x="528" y="40"/>
      <point x="576" y="108" type="curve"/>
      <point x="525" y="152" type="line"/>
      <point x="489" y="104"/>
      <point x="440" y="49"/>
      <point x="343" y="49" type="curve" smooth="yes"/>
      <point x="233" y="49"/>
      <point x="147" y="111"/>
      <point x="147" y="250" type="curve" smooth="yes"/>
      <point x="147" y="386"/>
      <point x="217" y="459"/>
      <point x="319" y="459" type="curve" smooth="yes"/>
      <point x="418" y="459"/>
      <point x="487" y="393"/>
      <point x="483" y="265" type="curve"/>
      <point x="513" y="293" type="line"/>
      <point x="125" y="293" type="line"/>
      <point x="125" y="235" type="line"/>
      <point x="582" y="235" type="line"/>
      <point x="581" y="425"/>
      <point x="480" y="518"/>
      <point x="318" y="518" type="curve" smooth="yes"/>
      <point x="166" y="518"/>
      <point x="49" y="410"/>
      <point x="49" y="252" type="curve" smooth="yes"/>
      <point x="49" y="80"/>
      <point x="176" y="-10"/>
    </contour>
    <contour>
      <point x="321" y="551" type="move" name="top"/>
    </contour>
    <contour>
      <point x="499" y="1" type="move" name="right"/>
    </contour>
    <contour>
      <point x="345" y="0" type="move" name="bottom"/>
    </contour>
  </outline>
</glyph>
<glyph name="f" format="1">
  <advance width="440"/>
  <unicode hex="0066"/>
  <outline>
    <contour>
      <point x="49" y="508" type="line"/>
      <point x="49" y="450" type="line"/>
      <point x="426" y="450" type="line"/>
      <point x="426" y="508" type="line"/>
    </contour>
    <contour>
      <point x="467" y="742" type="line"/>
      <point x="448" y="747"/>
      <point x="409" y="752"/>
      <point x="374" y="752" type="curve" smooth="yes"/>
      <point x="263" y="752"/>
      <point x="161" y="710"/>
      <point x="161" y="575" type="curve" smooth="yes"/>
      <point x="161" y="82" type="line" smooth="yes"/>
      <point x="161" y="54"/>
      <point x="126" y="47"/>
      <point x="68" y="47" type="curve" smooth="yes"/>
      <point x="55" y="47" type="line"/>
      <point x="55" y="0" type="line"/>
      <point x="379" y="0" type="line"/>
      <point x="379" y="47" type="line"/>
      <point x="363" y="47" type="line" smooth="yes"/>
      <point x="303" y="47"/>
      <point x="257" y="50"/>
      <point x="257" y="56" type="curve" smooth="yes"/>
      <point x="257" y="577" type="line" smooth="yes"/>
      <point x="257" y="672"/>
      <point x="306" y="694"/>
      <point x="374" y="694" type="curve" smooth="yes"/>
      <point x="410" y="694"/>
      <point x="443" y="685"/>
      <point x="467" y="677" type="curve"/>
    </contour>
  </outline>
</glyph>
<glyph name="h" format="1">
  <advance width="740"/>
  <unicode hex="0068"/>
  <outline>
    <contour>
      <point x="234" y="735" type="line"/>
      <point x="49" y="735" type="line"/>
      <point x="49" y="687" type="line"/>
      <point x="62" y="685" type="line" smooth="yes"/>
      <point x="115" y="677"/>
      <point x="139" y="671"/>
      <point x="139" y="642" type="curve" smooth="yes"/>
      <point x="139" y="82" type="line" smooth="yes"/>
      <point x="139" y="54"/>
      <point x="102" y="47"/>
      <point x="51" y="47" type="curve" smooth="yes"/>
      <point x="49" y="47" type="line"/>
      <point x="49" y="0" type="line"/>
      <point x="312" y="0" type="line"/>
      <point x="312" y="47" type="line"/>
      <point x="309" y="47" type="line" smooth="yes"/>
      <point x="280" y="47"/>
      <point x="234" y="50"/>
      <point x="234" y="56" type="curve"/>
    </contour>
    <contour>
      <point x="707" y="0" type="line"/>
      <point x="707" y="47" type="line"/>
      <point x="704" y="47" type="line" smooth="yes"/>
      <point x="654" y="47"/>
      <point x="618" y="54"/>
      <point x="618" y="82" type="curve" smooth="yes"/>
      <point x="618" y="332" type="line" smooth="yes"/>
      <point x="618" y="458"/>
      <point x="542" y="518"/>
      <point x="428" y="518" type="curve" smooth="yes"/>
      <point x="340" y="518"/>
      <point x="272" y="478"/>
      <point x="216" y="407" type="curve"/>
      <point x="216" y="337" type="line"/>
      <point x="264" y="408"/>
      <point x="333" y="452"/>
      <point x="410" y="452" type="curve" smooth="yes"/>
      <point x="491" y="452"/>
      <point x="522" y="406"/>
      <point x="522" y="319" type="curve" smooth="yes"/>
      <point x="522" y="56" type="line" smooth="yes"/>
      <point x="522" y="50"/>
      <point x="475" y="47"/>
      <point x="447" y="47" type="curve" smooth="yes"/>
      <point x="444" y="47" type="line"/>
      <point x="444" y="0" type="line"/>
    </contour>
    <contour>
      <point x="388" y="754" type="move" name="top"/>
    </contour>
    <contour>
      <point x="376" y="0" type="move" name="bottom"/>
    </contour>
  </outline>
</glyph>
<glyph name="i" format="1">
  <advance width="357"/>
  <unicode hex="0069"/>
  <outline>
    <contour>
      <point x="180" y="616" type="curve" smooth="yes"/>
      <point x="219" y="616"/>
      <point x="248" y="640"/>
      <point x="248" y="679" type="curve" smooth="yes"/>
      <point x="248" y="717"/>
      <point x="219" y="740"/>
      <point x="180" y="740" type="curve" smooth="yes"/>
      <point x="141" y="740"/>
      <point x="113" y="717"/>
      <point x="113" y="679" type="curve" smooth="yes"/>
      <point x="113" y="639"/>
      <point x="141" y="616"/>
    </contour>
    <contour>
      <point x="234" y="508" type="line"/>
      <point x="49" y="508" type="line"/>
      <point x="49" y="461" type="line"/>
      <point x="62" y="459" type="line" smooth="yes"/>
      <point x="116" y="451"/>
      <point x="139" y="445"/>
      <point x="139" y="417" type="curve" smooth="yes"/>
      <point x="139" y="82" type="line" smooth="yes"/>
      <point x="139" y="54"/>
      <point x="102" y="47"/>
      <point x="51" y="47" type="curve" smooth="yes"/>
      <point x="50" y="47" type="line"/>
      <point x="50" y="0" type="line"/>
      <point x="323" y="0" type="line"/>
      <point x="323" y="47" type="line"/>
      <point x="321" y="47" type="line" smooth="yes"/>
      <point x="271" y="47"/>
      <point x="234" y="54"/>
      <point x="234" y="82" type="curve" smooth="yes"/>
    </contour>
    <contour>
      <point x="189" y="551" type="move" name="top"/>
    </contour>
    <contour>
      <point x="242" y="-10" type="move" name="right"/>
    </contour>
    <contour>
      <point x="187" y="-10" type="move" name="bottom"/>
    </contour>
  </outline>
</glyph>
<glyph name="j" format="1">
  <advance width="331"/>
  <unicode hex="006A"/>
  <outline>
    <contour>
      <point x="130" y="-58" type="line" smooth="yes"/>
      <point x="130" y="-145"/>
      <point x="88" y="-172"/>
      <point x="22" y="-172" type="curve" smooth="yes"/>
      <point x="-13" y="-172"/>
      <point x="-38" y="-167"/>
      <point x="-67" y="-159" type="curve"/>
      <point x="-67" y="-224" type="line"/>
      <point x="-43" y="-232"/>
      <point x="-11" y="-236"/>
      <point x="25" y="-236" type="curve" smooth="yes"/>
      <point x="130" y="-236"/>
      <point x="225" y="-196"/>
      <point x="225" y="-56" type="curve" smooth="yes"/>
      <point x="225" y="508" type="line"/>
      <point x="28" y="508" type="line"/>
      <point x="28" y="461" type="line"/>
      <point x="46" y="459" type="line" smooth="yes"/>
      <point x="104" y="453"/>
      <point x="130" y="445"/>
      <point x="130" y="417" type="curve" smooth="yes"/>
    </contour>
    <contour>
      <point x="170" y="616" type="curve" smooth="yes"/>
      <point x="209" y="616"/>
      <point x="238" y="640"/>
      <point x="238" y="679" type="curve" smooth="yes"/>
      <point x="238" y="717"/>
      <point x="209" y="740"/>
      <point x="170" y="740" type="curve" smooth="yes"/>
      <point x="132" y="740"/>
      <point x="103" y="717"/>
      <point x="103" y="679" type="curve" smooth="yes"/>
      <point x="103" y="639"/>
      <point x="132" y="616"/>
    </contour>
    <contour>
      <point x="177" y="551" type="move" name="top"/>
    </contour>
  </outline>
</glyph>
<glyph name="k" format="1">
  <advance width="726"/>
  <unicode hex="006B"/>
  <outline>
    <contour>
      <point x="701" y="0" type="line"/>
      <point x="701" y="47" type="line"/>
      <point x="698" y="47" type="line"/>
      <point x="658" y="47"/>
      <point x="626" y="56"/>
      <point x="594" y="85" type="curve" smooth="yes"/>
      <point x="348" y="308" type="line"/>
      <point x="347" y="267" type="line"/>
      <point x="530" y="410" type="line" smooth="yes"/>
      <point x="574" y="444"/>
      <point x="615" y="462"/>
      <point x="663" y="462" type="curve"/>
      <point x="665" y="462" type="line"/>
      <point x="665" y="508" type="line"/>
      <point x="388" y="508" type="line"/>
      <point x="388" y="462" type="line"/>
      <point x="392" y="462" type="line"/>
      <point x="426" y="462"/>
      <point x="483" y="459"/>
      <point x="483" y="444" type="curve"/>
      <point x="267" y="273" type="line"/>
      <point x="267" y="267" type="line"/>
      <point x="499" y="56" type="line"/>
      <point x="499" y="50"/>
      <point x="454" y="47"/>
      <point x="424" y="47" type="curve"/>
      <point x="420" y="47" type="line"/>
      <point x="420" y="0" type="line"/>
    </contour>
    <contour>
      <point x="234" y="735" type="line"/>
      <point x="49" y="735" type="line"/>
      <point x="49" y="687" type="line"/>
      <point x="62" y="685" type="line" smooth="yes"/>
      <point x="116" y="677"/>
      <point x="139" y="672"/>
      <point x="139" y="643" type="curve" smooth="yes"/>
      <point x="139" y="82" type="line" smooth="yes"/>
      <point x="139" y="54"/>
      <point x="103" y="47"/>
      <point x="52" y="47" type="curve"/>
      <point x="50" y="47" type="line"/>
      <point x="50" y="0" type="line"/>
      <point x="317" y="0" type="line"/>
      <point x="317" y="47" type="line"/>
      <point x="314" y="47" type="line" smooth="yes"/>
      <point x="284" y="47"/>
      <point x="234" y="50"/>
      <point x="234" y="56" type="curve" smooth="yes"/>
    </contour>
    <contour>
      <point x="367" y="0" type="move" name="bottom"/>
    </contour>
  </outline>
</glyph>
<glyph name="l" format="1">
  <advance width="347"/>
  <unicode hex="006C"/>
  <outline>
    <contour>
      <point x="229" y="735" type="line"/>
      <point x="44" y="735" type="line"/>
      <point x="44" y="687" type="line"/>
      <point x="57" y="685" type="line" smooth="yes"/>
      <point x="111" y="677"/>
      <point x="134" y="672"/>
      <point x="134" y="643" type="curve" smooth="yes"/>
      <point x="134" y="82" type="line" smooth="yes"/>
      <point x="134" y="54"/>
      <point x="98" y="47"/>
      <point x="48" y="47" type="curve" smooth="yes"/>
      <point x="45" y="47" type="line"/>
      <point x="45" y="0" type="line"/>
      <point x="318" y="0" type="line"/>
      <point x="318" y="47" type="line"/>
      <point x="315" y="47" type="line" smooth="yes"/>
      <point x="265" y="47"/>
      <point x="229" y="54"/>
      <point x="229" y="82" type="curve" smooth="yes"/>
    </contour>
    <contour>
      <point x="182" y="746" type="move" name="top"/>
    </contour>
    <contour>
      <point x="306" y="735" type="move" name="right"/>
    </contour>
    <contour>
      <point x="371" y="391" type="move" name="mid"/>
    </contour>
    <contour>
      <point x="186" y="0" type="move" name="bottom"/>
    </contour>
  </outline>
</glyph>
<glyph name="m" format="1">
  <advance width="1053"/>
  <unicode hex="006D"/>
  <outline>
    <contour>
      <point x="49" y="0" type="line"/>
      <point x="306" y="0" type="line"/>
      <point x="306" y="47" type="line"/>
      <point x="304" y="47" type="line" smooth="yes"/>
      <point x="276" y="47"/>
      <point x="233" y="50"/>
      <point x="233" y="56" type="curve" smooth="yes"/>
      <point x="233" y="393" type="line"/>
      <point x="223" y="403" type="line"/>
      <point x="223" y="508" type="line"/>
      <point x="49" y="508" type="line"/>
      <point x="49" y="461" type="line"/>
      <point x="61" y="459" type="line" smooth="yes"/>
      <point x="113" y="450"/>
      <point x="138" y="445"/>
      <point x="138" y="417" type="curve" smooth="yes"/>
      <point x="138" y="82" type="line" smooth="yes"/>
      <point x="138" y="54"/>
      <point x="102" y="47"/>
      <point x="51" y="47" type="curve" smooth="yes"/>
      <point x="49" y="47" type="line"/>
    </contour>
    <contour>
      <point x="656" y="0" type="line"/>
      <point x="656" y="47" type="line"/>
      <point x="654" y="47" type="line" smooth="yes"/>
      <point x="625" y="47"/>
      <point x="581" y="50"/>
      <point x="581" y="56" type="curve" smooth="yes"/>
      <point x="581" y="346" type="line" smooth="yes"/>
      <point x="581" y="465"/>
      <point x="511" y="518"/>
      <point x="412" y="518" type="curve" smooth="yes"/>
      <point x="331" y="518"/>
      <point x="266" y="476"/>
      <point x="216" y="410" type="curve"/>
      <point x="216" y="338" type="line"/>
      <point x="268" y="409"/>
      <point x="323" y="452"/>
      <point x="393" y="452" type="curve" smooth="yes"/>
      <point x="459" y="452"/>
      <point x="486" y="416"/>
      <point x="486" y="335" type="curve" smooth="yes"/>
      <point x="486" y="56" type="line" smooth="yes"/>
      <point x="486" y="50"/>
      <point x="443" y="47"/>
      <point x="414" y="47" type="curve" smooth="yes"/>
      <point x="412" y="47" type="line"/>
      <point x="412" y="0" type="line"/>
    </contour>
    <contour>
      <point x="1020" y="0" type="line"/>
      <point x="1020" y="47" type="line"/>
      <point x="1017" y="47" type="line" smooth="yes"/>
      <point x="967" y="47"/>
      <point x="930" y="54"/>
      <point x="930" y="82" type="curve" smooth="yes"/>
      <point x="930" y="346" type="line" smooth="yes"/>
      <point x="930" y="465"/>
      <point x="860" y="518"/>
      <point x="761" y="518" type="curve" smooth="yes"/>
      <point x="680" y="518"/>
      <point x="615" y="476"/>
      <point x="565" y="410" type="curve"/>
      <point x="565" y="338" type="line"/>
      <point x="617" y="409"/>
      <point x="672" y="452"/>
      <point x="742" y="452" type="curve" smooth="yes"/>
      <point x="808" y="452"/>
      <point x="835" y="416"/>
      <point x="835" y="335" type="curve" smooth="yes"/>
      <point x="835" y="56" type="line" smooth="yes"/>
      <point x="835" y="50"/>
      <point x="792" y="47"/>
      <point x="763" y="47" type="curve" smooth="yes"/>
      <point x="761" y="47" type="line"/>
      <point x="761" y="0" type="line"/>
    </contour>
  </outline>
</glyph>
<glyph name="n" format="1">
  <advance width="739"/>
  <unicode hex="006E"/>
  <outline>
    <contour>
      <point x="49" y="0" type="line"/>
      <point x="311" y="0" type="line"/>
      <point x="311" y="47" type="line"/>
      <point x="308" y="47" type="line" smooth="yes"/>
      <point x="279" y="47"/>
      <point x="233" y="50"/>
      <point x="233" y="56" type="curve" smooth="yes"/>
      <point x="233" y="392" type="line"/>
      <point x="224" y="402" type="line"/>
      <point x="224" y="508" type="line"/>
      <point x="49" y="508" type="line"/>
      <point x="49" y="461" type="line"/>
      <point x="61" y="459" type="line" smooth="yes"/>
      <point x="113" y="450"/>
      <point x="138" y="445"/>
      <point x="138" y="417" type="curve" smooth="yes"/>
      <point x="138" y="82" type="line" smooth="yes"/>
      <point x="138" y="54"/>
      <point x="102" y="47"/>
      <point x="51" y="47" type="curve" smooth="yes"/>
      <point x="49" y="47" type="line"/>
    </contour>
    <contour>
      <point x="707" y="0" type="line"/>
      <point x="707" y="47" type="line"/>
      <point x="704" y="47" type="line" smooth="yes"/>
      <point x="654" y="47"/>
      <point x="618" y="54"/>
      <point x="618" y="82" type="curve" smooth="yes"/>
      <point x="618" y="332" type="line" smooth="yes"/>
      <point x="618" y="458"/>
      <point x="542" y="518"/>
      <point x="428" y="518" type="curve" smooth="yes"/>
      <point x="340" y="518"/>
      <point x="272" y="478"/>
      <point x="216" y="407" type="curve"/>
      <point x="216" y="337" type="line"/>
      <point x="264" y="408"/>
      <point x="333" y="452"/>
      <point x="410" y="452" type="curve" smooth="yes"/>
      <point x="491" y="452"/>
      <point x="522" y="406"/>
      <point x="522" y="319" type="curve" smooth="yes"/>
      <point x="522" y="56" type="line" smooth="yes"/>
      <point x="522" y="50"/>
      <point x="475" y="47"/>
      <point x="447" y="47" type="curve" smooth="yes"/>
      <point x="444" y="47" type="line"/>
      <point x="444" y="0" type="line"/>
    </contour>
    <contour>
      <point x="366" y="551" type="move" name="top"/>
    </contour>
    <contour>
      <point x="375" y="0" type="move" name="bottom"/>
    </contour>
  </outline>
</glyph>
<glyph name="o" format="1">
  <advance width="692"/>
  <unicode hex="006F"/>
  <outline>
    <contour>
      <point x="346" y="-10" type="curve" smooth="yes"/>
      <point x="516" y="-10"/>
      <point x="643" y="97"/>
      <point x="643" y="254" type="curve" smooth="yes"/>
      <point x="643" y="409"/>
      <point x="516" y="518"/>
      <point x="346" y="518" type="curve" smooth="yes"/>
      <point x="176" y="518"/>
      <point x="49" y="410"/>
      <point x="49" y="254" type="curve" smooth="yes"/>
      <point x="49" y="97"/>
      <point x="176" y="-10"/>
    </contour>
    <contour>
      <point x="346" y="49" type="curve" smooth="yes"/>
      <point x="226" y="49"/>
      <point x="149" y="129"/>
      <point x="149" y="254" type="curve" smooth="yes"/>
      <point x="149" y="377"/>
      <point x="226" y="459"/>
      <point x="346" y="459" type="curve" smooth="yes"/>
      <point x="465" y="459"/>
      <point x="543" y="377"/>
      <point x="543" y="254" type="curve" smooth="yes"/>
      <point x="543" y="128"/>
      <point x="465" y="49"/>
    </contour>
    <contour>
      <point x="346" y="551" type="move" name="top"/>
    </contour>
    <contour>
      <point x="466" y="0" type="move" name="right"/>
    </contour>
    <contour>
      <point x="346" y="0" type="move" name="bottom"/>
    </contour>
  </outline>
</glyph>
<glyph name="p" format="1">
  <advance width="747"/>
  <unicode hex="0070"/>
  <outline>
    <contour>
      <point x="44" y="-223" type="line"/>
      <point x="338" y="-223" type="line"/>
      <point x="338" y="-176" type="line"/>
      <point x="304" y="-176" type="line" smooth="yes"/>
      <point x="278" y="-176"/>
      <point x="228" y="-174"/>
      <point x="228" y="-167" type="curve" smooth="yes"/>
      <point x="228" y="370" type="line"/>
      <point x="219" y="382" type="line"/>
      <point x="219" y="508" type="line"/>
      <point x="44" y="508" type="line"/>
      <point x="44" y="461" type="line"/>
      <point x="56" y="459" type="line" smooth="yes"/>
      <point x="109" y="450"/>
      <point x="133" y="445"/>
      <point x="133" y="417" type="curve" smooth="yes"/>
      <point x="133" y="-141" type="line" smooth="yes"/>
      <point x="133" y="-170"/>
      <point x="97" y="-176"/>
      <point x="46" y="-176" type="curve"/>
      <point x="44" y="-176" type="line"/>
    </contour>
    <contour>
      <point x="423" y="-10" type="curve" smooth="yes"/>
      <point x="588" y="-10"/>
      <point x="698" y="99"/>
      <point x="698" y="257" type="curve" smooth="yes"/>
      <point x="698" y="414"/>
      <point x="598" y="518"/>
      <point x="443" y="518" type="curve" smooth="yes"/>
      <point x="346" y="518"/>
      <point x="264" y="473"/>
      <point x="211" y="394" type="curve"/>
      <point x="211" y="309" type="line"/>
      <point x="265" y="410"/>
      <point x="339" y="458"/>
      <point x="431" y="458" type="curve" smooth="yes"/>
      <point x="540" y="458"/>
      <point x="598" y="381"/>
      <point x="598" y="257" type="curve" smooth="yes"/>
      <point x="598" y="133"/>
      <point x="536" y="50"/>
      <point x="420" y="50" type="curve" smooth="yes"/>
      <point x="332" y="50"/>
      <point x="264" y="94"/>
      <point x="211" y="191" type="curve"/>
      <point x="211" y="100" type="line"/>
      <point x="254" y="32"/>
      <point x="333" y="-10"/>
    </contour>
  </outline>
</glyph>
<glyph name="q" format="1">
  <advance width="724"/>
  <unicode hex="0071"/>
  <outline>
    <contour>
      <point x="409" y="-223" type="line"/>
      <point x="703" y="-223" type="line"/>
      <point x="703" y="-176" type="line"/>
      <point x="701" y="-176" type="line"/>
      <point x="644" y="-176"/>
      <point x="614" y="-170"/>
      <point x="614" y="-141" type="curve" smooth="yes"/>
      <point x="614" y="511" type="line"/>
      <point x="548" y="511" type="line"/>
      <point x="527" y="403" type="line"/>
      <point x="519" y="386" type="line"/>
      <point x="519" y="-167" type="line" smooth="yes"/>
      <point x="519" y="-174"/>
      <point x="473" y="-176"/>
      <point x="443" y="-176" type="curve" smooth="yes"/>
      <point x="409" y="-176" type="line"/>
    </contour>
    <contour>
      <point x="325" y="518" type="curve" smooth="yes"/>
      <point x="159" y="518"/>
      <point x="49" y="409"/>
      <point x="49" y="250" type="curve" smooth="yes"/>
      <point x="49" y="94"/>
      <point x="153" y="-10"/>
      <point x="317" y="-10" type="curve" smooth="yes"/>
      <point x="415" y="-10"/>
      <point x="488" y="42"/>
      <point x="536" y="115" type="curve"/>
      <point x="536" y="202" type="line"/>
      <point x="482" y="102"/>
      <point x="415" y="50"/>
      <point x="324" y="50" type="curve" smooth="yes"/>
      <point x="210" y="50"/>
      <point x="149" y="127"/>
      <point x="149" y="250" type="curve" smooth="yes"/>
      <point x="149" y="375"/>
      <point x="211" y="458"/>
      <point x="328" y="458" type="curve" smooth="yes"/>
      <point x="417" y="458"/>
      <point x="490" y="412"/>
      <point x="536" y="320" type="curve"/>
      <point x="536" y="408" type="line"/>
      <point x="491" y="474"/>
      <point x="425" y="518"/>
    </contour>
  </outline>
</glyph>
<glyph name="r" format="1">
  <advance width="468"/>
  <unicode hex="0072"/>
  <outline>
    <contour>
      <point x="441" y="515" type="line"/>
      <point x="433" y="517"/>
      <point x="416" y="518"/>
      <point x="401" y="518" type="curve" smooth="yes"/>
      <point x="313" y="518"/>
      <point x="251" y="459"/>
      <point x="216" y="374" type="curve"/>
      <point x="216" y="309" type="line"/>
      <point x="261" y="392"/>
      <point x="295" y="428"/>
      <point x="378" y="428" type="curve" smooth="yes"/>
      <point x="398" y="428"/>
      <point x="423" y="425"/>
      <point x="441" y="420" type="curve"/>
    </contour>
    <contour>
      <point x="49" y="0" type="line"/>
      <point x="350" y="0" type="line"/>
      <point x="350" y="47" type="line"/>
      <point x="330" y="47" type="line" smooth="yes"/>
      <point x="297" y="47"/>
      <point x="233" y="50"/>
      <point x="233" y="80" type="curve" smooth="yes"/>
      <point x="233" y="369" type="line"/>
      <point x="224" y="360" type="line"/>
      <point x="224" y="508" type="line"/>
      <point x="49" y="508" type="line"/>
      <point x="49" y="461" type="line"/>
      <point x="61" y="459" type="line" smooth="yes"/>
      <point x="113" y="450"/>
      <point x="138" y="445"/>
      <point x="138" y="417" type="curve" smooth="yes"/>
      <point x="138" y="82" type="line" smooth="yes"/>
      <point x="138" y="54"/>
      <point x="102" y="47"/>
      <point x="51" y="47" type="curve" smooth="yes"/>
      <point x="49" y="47" type="line"/>
    </contour>
    <contour>
      <point x="251" y="545" type="move" name="top"/>
    </contour>
    <contour>
      <point x="190" y="0" type="move" name="bottom"/>
    </contour>
  </outline>
</glyph>
<glyph name="t" format="1">
  <advance width="427"/>
  <unicode hex="0074"/>
  <outline>
    <contour>
      <point x="207" y="153" type="curve" smooth="yes"/>
      <point x="207" y="648" type="line"/>
      <point x="120" y="648" type="line"/>
      <point x="120" y="500" type="line"/>
      <point x="112" y="492" type="line"/>
      <point x="112" y="152" type="line" smooth="yes"/>
      <point x="112" y="27"/>
      <point x="199" y="-10"/>
      <point x="304" y="-10" type="curve" smooth="yes"/>
      <point x="341" y="-10"/>
      <point x="378" y="-2"/>
      <point x="399" y="7" type="curve"/>
      <point x="399" y="66" type="line"/>
      <point x="377" y="58"/>
      <point x="347" y="52"/>
      <point x="314" y="52" type="curve" smooth="yes"/>
      <point x="244" y="52"/>
      <point x="207" y="82"/>
    </contour>
    <contour>
      <point x="120" y="553" type="line"/>
      <point x="120" y="512"/>
      <point x="79" y="503"/>
      <point x="9" y="503" type="curve" smooth="yes"/>
      <point x="3" y="503" type="line"/>
      <point x="3" y="450" type="line"/>
      <point x="151" y="450" type="line"/>
    </contour>
    <contour>
      <point x="188" y="450" type="line"/>
      <point x="385" y="450" type="line"/>
      <point x="385" y="508" type="line"/>
      <point x="188" y="508" type="line"/>
    </contour>
    <contour>
      <point x="172" y="675" type="move" name="top"/>
    </contour>
    <contour>
      <point x="329" y="681" type="move" name="right"/>
    </contour>
    <contour>
      <point x="274" y="0" type="move" name="bottom"/>
    </contour>
  </outline>
</glyph>
<glyph name="u" format="1">
  <advance width="711"/>
  <unicode hex="0075"/>
  <outline>
    <contour>
      <point x="214" y="508" type="line"/>
      <point x="29" y="508" type="line"/>
      <point x="29" y="461" type="line"/>
      <point x="42" y="459" type="line" smooth="yes"/>
      <point x="94" y="451"/>
      <point x="119" y="445"/>
      <point x="119" y="417" type="curve" smooth="yes"/>
      <point x="119" y="170" type="line" smooth="yes"/>
      <point x="119" y="41"/>
      <point x="190" y="-10"/>
      <point x="305" y="-10" type="curve" smooth="yes"/>
      <point x="388" y="-10"/>
      <point x="459" y="26"/>
      <point x="514" y="98" type="curve"/>
      <point x="514" y="170" type="line"/>
      <point x="462" y="95"/>
      <point x="396" y="56"/>
      <point x="323" y="56" type="curve" smooth="yes"/>
      <point x="238" y="56"/>
      <point x="214" y="94"/>
      <point x="214" y="181" type="curve" smooth="yes"/>
    </contour>
    <contour>
      <point x="591" y="508" type="line"/>
      <point x="392" y="508" type="line"/>
      <point x="392" y="461" type="line"/>
      <point x="414" y="458" type="line" smooth="yes"/>
      <point x="470" y="451"/>
      <point x="496" y="445"/>
      <point x="496" y="417" type="curve" smooth="yes"/>
      <point x="496" y="116" type="line"/>
      <point x="505" y="105" type="line"/>
      <point x="505" y="0" type="line"/>
      <point x="682" y="0" type="line"/>
      <point x="682" y="47" type="line"/>
      <point x="679" y="47" type="line" smooth="yes"/>
      <point x="623" y="47"/>
      <point x="591" y="54"/>
      <point x="591" y="82" type="curve" smooth="yes"/>
    </contour>
    <contour>
      <point x="331" y="551" type="move" name="top"/>
    </contour>
    <contour>
      <point x="522" y="0" type="move" name="right"/>
    </contour>
    <contour>
      <point x="330" y="0" type="move" name="bottom"/>
    </contour>
  </outline>
</glyph>
<glyph name="v" format="1">
  <advance width="655"/>
  <unicode hex="0076"/>
  <outline>
    <contour>
      <point x="508" y="441" type="curve"/>
      <point x="341" y="58" type="line"/>
      <point x="349" y="58" type="line"/>
      <point x="176" y="453" type="line"/>
      <point x="176" y="460"/>
      <point x="224" y="462"/>
      <point x="272" y="462" type="curve" smooth="yes"/>
      <point x="275" y="462" type="line"/>
      <point x="275" y="508" type="line"/>
      <point x="7" y="508" type="line"/>
      <point x="7" y="462" type="line"/>
      <point x="9" y="462" type="line" smooth="yes"/>
      <point x="51" y="462"/>
      <point x="77" y="455"/>
      <point x="89" y="428" type="curve" smooth="yes"/>
      <point x="281" y="0" type="line"/>
      <point x="380" y="0" type="line"/>
      <point x="567" y="420" type="line" smooth="yes"/>
      <point x="582" y="454"/>
      <point x="612" y="462"/>
      <point x="645" y="462" type="curve" smooth="yes"/>
      <point x="648" y="462" type="line"/>
      <point x="648" y="508" type="line"/>
      <point x="413" y="508" type="line"/>
      <point x="413" y="462" type="line"/>
      <point x="415" y="462" type="line" smooth="yes"/>
      <point x="460" y="462"/>
      <point x="506" y="453"/>
    </contour>
  </outline>
</glyph>
<glyph name="w" format="1">
  <advance width="946"/>
  <unicode hex="0077"/>
  <outline>
    <contour>
      <point x="473" y="405" type="line"/>
      <point x="336" y="0" type="line"/>
      <point x="237" y="0" type="line"/>
      <point x="82" y="431" type="line" smooth="yes"/>
      <point x="73" y="456"/>
      <point x="42" y="462"/>
      <point x="8" y="462" type="curve"/>
      <point x="7" y="462" type="line"/>
      <point x="7" y="508" type="line"/>
      <point x="270" y="508" type="line"/>
      <point x="270" y="462" type="line"/>
      <point x="268" y="462" type="line" smooth="yes"/>
      <point x="219" y="462"/>
      <point x="172" y="460"/>
      <point x="172" y="453" type="curve"/>
      <point x="307" y="64" type="line"/>
      <point x="295" y="61" type="line"/>
      <point x="445" y="508" type="line"/>
      <point x="523" y="508" type="line"/>
      <point x="680" y="65" type="line"/>
      <point x="669" y="62" type="line"/>
      <point x="798" y="441" type="line"/>
      <point x="796" y="454"/>
      <point x="755" y="462"/>
      <point x="703" y="462" type="curve" smooth="yes"/>
      <point x="701" y="462" type="line"/>
      <point x="701" y="508" type="line"/>
      <point x="939" y="508" type="line"/>
      <point x="939" y="462" type="line"/>
      <point x="938" y="462" type="line"/>
      <point x="904" y="462"/>
      <point x="869" y="450"/>
      <point x="858" y="419" type="curve" smooth="yes"/>
      <point x="712" y="0" type="line"/>
      <point x="613" y="0" type="line"/>
      <point x="465" y="405" type="line"/>
    </contour>
    <contour>
      <point x="479" y="551" type="move" name="top"/>
    </contour>
  </outline>
</glyph>
<glyph name="x" format="1">
  <advance width="660"/>
  <unicode hex="0078"/>
  <outline>
    <contour>
      <point x="653" y="0" type="line"/>
      <point x="653" y="46" type="line"/>
      <point x="652" y="46" type="line"/>
      <point x="608" y="46"/>
      <point x="591" y="56"/>
      <point x="567" y="80" type="curve" smooth="yes"/>
      <point x="375" y="277" type="line"/>
      <point x="369" y="281" type="line"/>
      <point x="199" y="454" type="line"/>
      <point x="199" y="460"/>
      <point x="248" y="462"/>
      <point x="291" y="462" type="curve" smooth="yes"/>
      <point x="294" y="462" type="line"/>
      <point x="294" y="508" type="line"/>
      <point x="27" y="508" type="line"/>
      <point x="27" y="461" type="line"/>
      <point x="28" y="461" type="line"/>
      <point x="70" y="461"/>
      <point x="88" y="456"/>
      <point x="107" y="435" type="curve" smooth="yes"/>
      <point x="300" y="235" type="line"/>
      <point x="306" y="232" type="line"/>
      <point x="479" y="56" type="line"/>
      <point x="479" y="48"/>
      <point x="430" y="46"/>
      <point x="385" y="46" type="curve" smooth="yes"/>
      <point x="382" y="46" type="line"/>
      <point x="382" y="0" type="line"/>
    </contour>
    <contour>
      <point x="13" y="0" type="line"/>
      <point x="255" y="0" type="line"/>
      <point x="255" y="46" type="line"/>
      <point x="253" y="46" type="line" smooth="yes"/>
      <point x="212" y="46"/>
      <point x="166" y="54"/>
      <point x="166" y="66" type="curve"/>
      <point x="337" y="234" type="line"/>
      <point x="292" y="268" type="line"/>
      <point x="103" y="84" type="line" smooth="yes"/>
      <point x="77" y="59"/>
      <point x="47" y="46"/>
      <point x="14" y="46" type="curve"/>
      <point x="13" y="46" type="line"/>
    </contour>
    <contour>
      <point x="371" y="247" type="line"/>
      <point x="543" y="417" type="line" smooth="yes"/>
      <point x="577" y="451"/>
      <point x="601" y="462"/>
      <point x="639" y="462" type="curve"/>
      <point x="640" y="462" type="line"/>
      <point x="640" y="508" type="line"/>
      <point x="399" y="508" type="line"/>
      <point x="399" y="462" type="line"/>
      <point x="403" y="462" type="line" smooth="yes"/>
      <point x="442" y="462"/>
      <point x="488" y="454"/>
      <point x="488" y="442" type="curve"/>
      <point x="330" y="284" type="line"/>
    </contour>
  </outline>
</glyph>
<glyph name="y" format="1">
  <advance width="668"/>
  <unicode hex="0079"/>
  <outline>
    <contour>
      <point x="306" y="-17" type="line"/>
      <point x="359" y="8" type="line"/>
      <point x="370" y="50" type="line"/>
      <point x="178" y="453" type="line"/>
      <point x="178" y="460"/>
      <point x="232" y="462"/>
      <point x="275" y="462" type="curve" smooth="yes"/>
      <point x="277" y="462" type="line"/>
      <point x="277" y="508" type="line"/>
      <point x="7" y="508" type="line"/>
      <point x="7" y="462" type="line"/>
      <point x="8" y="462" type="line"/>
      <point x="52" y="462"/>
      <point x="77" y="455"/>
      <point x="90" y="427" type="curve" smooth="yes"/>
    </contour>
    <contour>
      <point x="111" y="-232" type="curve" smooth="yes"/>
      <point x="232" y="-232"/>
      <point x="295" y="-171"/>
      <point x="347" y="-64" type="curve" smooth="yes"/>
      <point x="580" y="417" type="line" smooth="yes"/>
      <point x="598" y="454"/>
      <point x="626" y="462"/>
      <point x="660" y="462" type="curve"/>
      <point x="661" y="462" type="line"/>
      <point x="661" y="508" type="line"/>
      <point x="424" y="508" type="line"/>
      <point x="424" y="462" type="line"/>
      <point x="427" y="462" type="line" smooth="yes"/>
      <point x="472" y="462"/>
      <point x="519" y="453"/>
      <point x="519" y="440" type="curve"/>
      <point x="346" y="69" type="line"/>
      <point x="298" y="-23" type="line" smooth="yes"/>
      <point x="247" y="-121"/>
      <point x="198" y="-148"/>
      <point x="117" y="-148" type="curve" smooth="yes"/>
      <point x="70" y="-148"/>
      <point x="33" y="-132"/>
      <point x="26" y="-130" type="curve"/>
      <point x="26" y="-214" type="line"/>
      <point x="41" y="-224"/>
      <point x="73" y="-232"/>
    </contour>
    <contour>
      <point x="338" y="551" type="move" name="top"/>
    </contour>
    <contour>
      <point x="349" y="-211" type="move" name="bottom"/>
    </contour>
  </outline>
</glyph>
<glyph name="z" format="1">
  <advance width="548"/>
  <unicode hex="007A"/>
  <outline>
    <contour>
      <point x="126" y="41" type="line"/>
      <point x="510" y="450" type="line"/>
      <point x="510" y="508" type="line"/>
      <point x="57" y="508" type="line"/>
      <point x="57" y="352" type="line"/>
      <point x="115" y="352" type="line"/>
      <point x="124" y="410" type="line" smooth="yes"/>
      <point x="130" y="446"/>
      <point x="168" y="453"/>
      <point x="267" y="453" type="curve" smooth="yes"/>
      <point x="439" y="453" type="line"/>
      <point x="421" y="467" type="line"/>
      <point x="40" y="63" type="line"/>
      <point x="40" y="0" type="line"/>
      <point x="521" y="0" type="line"/>
      <point x="521" y="174" type="line"/>
      <point x="462" y="174" type="line"/>
      <point x="451" y="102" type="line" smooth="yes"/>
      <point x="445" y="64"/>
      <point x="406" y="57"/>
      <point x="308" y="57" type="curve" smooth="yes"/>
      <point x="110" y="57" type="line"/>
    </contour>
    <contour>
      <point x="280" y="551" type="move" name="top"/>
    </contour>
    <contour>
      <point x="302" y="0" type="move" name="bottom"/>
    </contour>
  </outline>
</glyph>
<glyph name="yen" format="1">
  <advance width="658"/>
  <unicode hex="00A5"/>
  <outline>
    <contour>
      <point x="79" y="355" type="line"/>
      <point x="79" y="301" type="line"/>
      <point x="582" y="301" type="line"/>
      <point x="582" y="355" type="line"/>
    </contour>
    <contour>
      <point x="79" y="225" type="line"/>
      <point x="79" y="171" type="line"/>
      <point x="582" y="171" type="line"/>
      <point x="582" y="225" type="line"/>
    </contour>
    <contour>
      <point x="7" y="710" type="line"/>
      <point x="7" y="661" type="line"/>
      <point x="13" y="661" type="line" smooth="yes"/>
      <point x="49" y="661"/>
      <point x="77" y="660"/>
      <point x="94" y="635" type="curve" smooth="yes"/>
      <point x="305" y="319" type="line"/>
      <point x="357" y="319" type="line"/>
      <point x="554" y="620" type="line" smooth="yes"/>
      <point x="577" y="657"/>
      <point x="609" y="661"/>
      <point x="645" y="661" type="curve" smooth="yes"/>
      <point x="651" y="661" type="line"/>
      <point x="651" y="710" type="line"/>
      <point x="391" y="710" type="line"/>
      <point x="391" y="661" type="line"/>
      <point x="409" y="661" type="line" smooth="yes"/>
      <point x="449" y="661"/>
      <point x="497" y="654"/>
      <point x="497" y="643" type="curve"/>
      <point x="320" y="363" type="line"/>
      <point x="371" y="364" type="line"/>
      <point x="180" y="651" type="line"/>
      <point x="180" y="658"/>
      <point x="230" y="661"/>
      <point x="268" y="661" type="curve" smooth="yes"/>
      <point x="288" y="661" type="line"/>
      <point x="288" y="710" type="line"/>
    </contour>
    <contour>
      <point x="162" y="0" type="line"/>
      <point x="499" y="0" type="line"/>
      <point x="499" y="49" type="line"/>
      <point x="479" y="49" type="line" smooth="yes"/>
      <point x="422" y="49"/>
      <point x="379" y="56"/>
      <point x="379" y="85" type="curve" smooth="yes"/>
      <point x="379" y="364" type="line"/>
      <point x="282" y="364" type="line"/>
      <point x="282" y="85" type="line" smooth="yes"/>
      <point x="282" y="56"/>
      <point x="240" y="49"/>
      <point x="182" y="49" type="curve" smooth="yes"/>
      <point x="162" y="49" type="line"/>
    </contour>
  </outline>
</glyph>
<glyph name="Oslash" format="1">
  <advance width="923"/>
  <unicode hex="00D8"/>
  <outline>
    <contour>
      <point x="811" y="725" type="line"/>
      <point x="9" y="-15" type="line"/>
      <point x="99" y="-15" type="line"/>
      <point x="902" y="725" type="line"/>
    </contour>
    <contour>
      <point x="462" y="-10" type="curve" smooth="yes"/>
      <point x="691" y="-10"/>
      <point x="869" y="139"/>
      <point x="869" y="355" type="curve" smooth="yes"/>
      <point x="869" y="572"/>
      <point x="691" y="720"/>
      <point x="462" y="720" type="curve" smooth="yes"/>
      <point x="233" y="720"/>
      <point x="55" y="572"/>
      <point x="55" y="355" type="curve" smooth="yes"/>
      <point x="55" y="139"/>
      <point x="233" y="-10"/>
    </contour>
    <contour>
      <point x="462" y="52" type="curve" smooth="yes"/>
      <point x="276" y="52"/>
      <point x="162" y="149"/>
      <point x="162" y="355" type="curve" smooth="yes"/>
      <point x="162" y="541"/>
      <point x="287" y="658"/>
      <point x="462" y="658" type="curve" smooth="yes"/>
      <point x="648" y="658"/>
      <point x="762" y="561"/>
      <point x="762" y="355" type="curve" smooth="yes"/>
      <point x="762" y="169"/>
      <point x="636" y="52"/>
    </contour>
    <contour>
      <point x="460" y="731" type="move" name="top"/>
    </contour>
  </outline>
</glyph>
<glyph name="lslash" format="1">
  <advance width="365"/>
  <unicode hex="0142"/>
  <outline>
    <contour>
      <point x="37" y="188" type="line"/>
      <point x="351" y="454" type="line"/>
      <point x="351" y="526" type="line"/>
      <point x="37" y="260" type="line"/>
    </contour>
    <component base="l" xOffset="32"/>
  </outline>
</glyph>
<glyph name="Tbar" format="1">
  <advance width="779"/>
  <unicode hex="0166"/>
  <outline>
    <contour>
      <point x="161" y="379" type="line"/>
      <point x="618" y="379" type="line"/>
      <point x="618" y="324" type="line"/>
      <point x="161" y="324" type="line"/>
    </contour>
    <component base="T" xOffset="57"/>
  </outline>
</glyph>
<glyph name="circumflex" format="1">
  <advance width="588"/>
  <unicode hex="02C6"/>
  <outline>
    <contour>
      <point x="337" y="738" type="line"/>
      <point x="464" y="581" type="line"/>
      <point x="464" y="570" type="line"/>
      <point x="415" y="570" type="line"/>
      <point x="274" y="684" type="line"/>
      <point x="302" y="684" type="line"/>
      <point x="162" y="570" type="line"/>
      <point x="124" y="570" type="line"/>
      <point x="124" y="581" type="line"/>
      <point x="250" y="738" type="line"/>
    </contour>
    <contour>
      <point x="288" y="529" type="move" name="_top"/>
    </contour>
  </outline>
</glyph>
<glyph name="dotaccent" format="1">
  <advance width="588"/>
  <unicode hex="02D9"/>
  <outline>
    <contour>
      <point x="294" y="616" type="curve" smooth="yes"/>
      <point x="333" y="616"/>
      <point x="362" y="640"/>
      <point x="362" y="679" type="curve" smooth="yes"/>
      <point x="362" y="717"/>
      <point x="333" y="740"/>
      <point x="294" y="740" type="curve" smooth="yes"/>
      <point x="255" y="740"/>
      <point x="226" y="717"/>
      <point x="226" y="679" type="curve" smooth="yes"/>
      <point x="226" y="639"/>
      <point x="255" y="616"/>
    </contour>
    <contour>
      <point x="294" y="526" type="move" name="_top"/>
    </contour>
  </outline>
</glyph>
<glyph name="gravecomb" format="1">
  <unicode hex="0300"/>
  <outline>
    <component base="acute" xScale="-1.0" xOffset="-94"/>
    <contour>
      <point x="-283" y="531" type="move" name="_top"/>
    </contour>
  </outline>
</glyph>
<glyph name="tildecomb" format="1">
  <unicode hex="0303"/>
  <outline>
    <component base="tilde" xOffset="-608"/>
    <contour>
      <point x="-362" y="516" type="move" name="_top"/>
    </contour>
  </outline>
</glyph>
<glyph name="macroncomb" format="1">
  <unicode hex="0304"/>
  <outline>
    <component base="macron" xOffset="-605"/>
    <contour>
      <point x="-356" y="526" type="move" name="_top"/>
    </contour>
  </outline>
</glyph>
<glyph name="ruble" format="1">
  <advance width="658"/>
  <unicode hex="20BD"/>
  <outline>
    <contour>
      <point x="47" y="385" type="line"/>
      <point x="369" y="385" type="line" smooth="yes"/>
      <point x="495" y="385"/>
      <point x="551" y="439"/>
      <point x="551" y="522" type="curve" smooth="yes"/>
      <point x="551" y="603"/>
      <point x="495" y="651"/>
      <point x="375" y="651" type="curve" smooth="yes"/>
      <point x="259" y="651" type="line"/>
      <point x="259" y="59" type="line" smooth="yes"/>
      <point x="259" y="52"/>
      <point x="310" y="49"/>
      <point x="350" y="49" type="curve" smooth="yes"/>
      <point x="382" y="49" type="line"/>
      <point x="382" y="0" type="line"/>
      <point x="47" y="0" type="line"/>
      <point x="47" y="49" type="line"/>
      <point x="60" y="49" type="line" smooth="yes"/>
      <point x="118" y="49"/>
      <point x="160" y="56"/>
      <point x="160" y="85" type="curve" smooth="yes"/>
      <point x="160" y="625" type="line" smooth="yes"/>
      <point x="160" y="654"/>
      <point x="118" y="661"/>
      <point x="60" y="661" type="curve" smooth="yes"/>
      <point x="47" y="661" type="line"/>
      <point x="47" y="710" type="line"/>
      <point x="376" y="710" type="line" smooth="yes"/>
      <point x="555" y="710"/>
      <point x="655" y="637"/>
      <point x="655" y="523" type="curve" smooth="yes"/>
      <point x="655" y="410"/>
      <point x="549" y="331"/>
      <point x="370" y="331" type="curve" smooth="yes"/>
      <point x="47" y="331" type="line"/>
    </contour>
    <contour>
      <point x="477" y="177" type="line"/>
      <point x="47" y="177" type="line"/>
      <point x="47" y="231" type="line"/>
      <point x="477" y="231" type="line"/>
    </contour>
  </outline>
</glyph>
<glyph name="notequal" format="1">
  <advance width="658"/>
  <unicode hex="2260"/>
  <outline>
    <contour>
      <point x="465" y="570" type="line"/>
      <point x="89" y="84" type="line"/>
      <point x="173" y="84" type="line"/>
      <point x="550" y="570" type="line"/>
    </contour>
    <component base="equal" xOffset="38" yOffset="1"/>
  </outline>
</glyph>
<glyph name="acute.pl" format="1">
  <advance width="588"/>
  <outline>
    <contour>
      <point x="232" y="678" type="curve" smooth="yes"/>
      <point x="226" y="586" type="line"/>
      <point x="226" y="566" type="line"/>
      <point x="259" y="566" type="line"/>
      <point x="311" y="653" type="line" smooth="yes"/>
      <point x="326" y="682"/>
      <point x="334" y="703"/>
      <point x="334" y="722" type="curve" smooth="yes"/>
      <point x="334" y="746"/>
      <point x="316" y="761"/>
      <point x="287" y="761" type="curve" smooth="yes"/>
      <point x="251" y="761"/>
      <point x="235" y="735"/>
    </contour>
    <contour>
      <point x="254" y="489" type="move" name="_top"/>
    </contour>
  </outline>
</glyph>
<glyph name="circumflex_acute.uc" format="1">
  <advance width="599"/>
  <outline>
    <contour>
      <point x="507" y="959" type="curve" smooth="yes"/>
      <point x="445" y="873" type="line"/>
      <point x="445" y="853" type="line"/>
      <point x="473" y="853" type="line"/>
      <point x="561" y="892" type="line" smooth="yes"/>
      <point x="599" y="910"/>
      <point x="623" y="932"/>
      <point x="623" y="959" type="curve" smooth="yes"/>
      <point x="623" y="982"/>
      <point x="604" y="1001"/>
      <point x="577" y="1001" type="curve" smooth="yes"/>
      <point x="549" y="1001"/>
      <point x="528" y="986"/>
    </contour>
    <component base="circumflex.uc" xOffset="54"/>
    <contour>
      <point x="288" y="749" type="move" name="_top"/>
    </contour>
  </outline>
</glyph>
<glyph name="dieresis_macron" format="1">
  <advance width="613"/>
  <outline>
    <component base="dieresis" xOffset="54"/>
    <component base="macron" xOffset="54" yOffset="172"/>
    <contour>
      <point x="307" y="526" type="move" name="_top"/>
    </contour>
  </outline>
</glyph>
<glyph name="dotaccent_macron.uc" format="1">
  <advance width="588"/>
  <outline>
    <component base="dotaccent.uc" xOffset="40"/>
    <component base="macron.uc" xOffset="40" yOffset="154"/>
    <contour>
      <point x="331" y="694" type="move" name="_top"/>
    </contour>
  </outline>
</glyph>
<glyph name="dotbelowcomb" format="1">
  <outline>
    <component base="dotbelow" xOffset="-610"/>
    <contour>
      <point x="-303" y="-35" type="move" name="_bottom"/>
    </contour>
  </outline>
</glyph>
<glyph name="five.old" format="1">
  <advance width="658"/>
  <outline>
    <contour>
      <point x="316" y="-151" type="curve" smooth="yes"/>
      <point x="168" y="-151"/>
      <point x="80" y="-85"/>
      <point x="36" y="-9" type="curve"/>
      <point x="90" y="32" type="line"/>
      <point x="126" y="-21"/>
      <point x="187" y="-89"/>
      <point x="316" y="-89" type="curve" smooth="yes"/>
      <point x="431" y="-89"/>
      <point x="506" y="-22"/>
      <point x="506" y="86" type="curve" smooth="yes"/>
      <point x="506" y="186"/>
      <point x="430" y="243"/>
      <point x="336" y="243" type="curve" smooth="yes"/>
      <point x="263" y="243"/>
      <point x="205" y="220"/>
      <point x="161" y="177" type="curve"/>
      <point x="102" y="177" type="line"/>
      <point x="102" y="548" type="line"/>
      <point x="557" y="548" type="line"/>
      <point x="532" y="467" type="line"/>
      <point x="142" y="467" type="line"/>
      <point x="171" y="528" type="line"/>
      <point x="171" y="215" type="line"/>
      <point x="167" y="205"/>
      <point x="145" y="197"/>
      <point x="144" y="218" type="curve"/>
      <point x="186" y="272"/>
      <point x="263" y="305"/>
      <point x="352" y="305" type="curve" smooth="yes"/>
      <point x="510" y="305"/>
      <point x="607" y="204"/>
      <point x="607" y="86" type="curve" smooth="yes"/>
      <point x="607" y="-54"/>
      <point x="491" y="-151"/>
    </contour>
  </outline>
</glyph>
<glyph name="four.lin" format="1">
  <advance width="658"/>
  <outline>
    <contour>
      <point x="32" y="201" type="line"/>
      <point x="634" y="201" type="line"/>
      <point x="634" y="273" type="line"/>
      <point x="64" y="273" type="line"/>
      <point x="73" y="232" type="line"/>
      <point x="411" y="665" type="line"/>
      <point x="441" y="710" type="line"/>
      <point x="366" y="710" type="line"/>
      <point x="32" y="280" type="line"/>
    </contour>
    <contour>
      <point x="260" y="0" type="line"/>
      <point x="623" y="0" type="line"/>
      <point x="623" y="49" type="line"/>
      <point x="600" y="49" type="line" smooth="yes"/>
      <point x="539" y="49"/>
      <point x="495" y="56"/>
      <point x="495" y="85" type="curve" smooth="yes"/>
      <point x="495" y="710" type="line"/>
      <point x="396" y="710" type="line"/>
      <point x="396" y="666" type="line"/>
      <point x="396" y="85" type="line" smooth="yes"/>
      <point x="396" y="56"/>
      <point x="353" y="49"/>
      <point x="286" y="49" type="curve" smooth="yes"/>
      <point x="260" y="49" type="line"/>
    </contour>
  </outline>
</glyph>
<glyph name="guarani.proportional" format="1">
  <advance width="903"/>
  <outline>
    <contour>
      <point x="584" y="358" type="line"/>
      <point x="584" y="310" type="line"/>
      <point x="592" y="310" type="line" smooth="yes"/>
      <point x="647" y="310"/>
      <point x="687" y="302"/>
      <point x="687" y="274" type="curve"/>
      <point x="782" y="274" type="line"/>
      <point x="782" y="302"/>
      <point x="820" y="310"/>
      <point x="870" y="310" type="curve" smooth="yes"/>
      <point x="875" y="310" type="line"/>
      <point x="875" y="358" type="line"/>
    </contour>
    <contour>
      <point x="416" y="790" type="line"/>
      <point x="416" y="668" type="line"/>
      <point x="416" y="653" type="line"/>
      <point x="416" y="49" type="line"/>
      <point x="416" y="38" type="line"/>
      <point x="416" y="-120" type="line"/>
      <point x="482" y="-120" type="line"/>
      <point x="482" y="33" type="line"/>
      <point x="482" y="43" type="line"/>
      <point x="482" y="668" type="line"/>
      <point x="482" y="674" type="line"/>
      <point x="482" y="790" type="line"/>
    </contour>
    <contour>
      <point x="474" y="9" type="curve" smooth="yes"/>
      <point x="610" y="9"/>
      <point x="735" y="74"/>
      <point x="782" y="131" type="curve"/>
      <point x="782" y="320" type="line"/>
      <point x="687" y="329" type="line"/>
      <point x="687" y="136" type="line"/>
      <point x="661" y="115"/>
      <point x="588" y="69"/>
      <point x="475" y="69" type="curve" smooth="yes"/>
      <point x="281" y="69"/>
      <point x="168" y="177"/>
      <point x="168" y="355" type="curve" smooth="yes"/>
      <point x="168" y="527"/>
      <point x="283" y="641"/>
      <point x="477" y="641" type="curve" smooth="yes"/>
      <point x="590" y="641"/>
      <point x="677" y="603"/>
      <point x="719" y="540" type="curve"/>
      <point x="728" y="572"/>
      <point x="699" y="606"/>
      <point x="665" y="609" type="curve"/>
      <point x="665" y="506" type="line"/>
      <point x="770" y="506" type="line"/>
      <point x="770" y="599" type="line"/>
      <point x="725" y="656"/>
      <point x="609" y="701"/>
      <point x="477" y="701" type="curve" smooth="yes"/>
      <point x="232" y="701"/>
      <point x="63" y="558"/>
      <point x="63" y="355" type="curve" smooth="yes"/>
      <point x="63" y="148"/>
      <point x="227" y="9"/>
    </contour>
  </outline>
</glyph>
<glyph name="hungarumlautcomb" format="1">
  <outline>
    <component base="hungarumlaut" xOffset="-631"/>
    <contour>
      <point x="-381" y="525" type="move" name="_top"/>
    </contour>
  </outline>
</glyph>
<glyph name="macron_acute.uc" format="1">
  <advance width="645"/>
  <outline>
    <component base="macron.uc" xOffset="70"/>
    <component base="acute.uc" xOffset="106" yOffset="141"/>
    <contour>
      <point x="323" y="694" type="move" name="_top"/>
    </contour>
  </outline>
</glyph>
<glyph name="tilde_acute.uc" format="1">
  <advance width="678"/>
  <outline>
    <component base="tilde.uc" xOffset="84"/>
    <component base="acute.uc" xOffset="121" yOffset="162"/>
    <contour>
      <point x="335" y="694" type="move" name="_top"/>
    </contour>
  </outline>
</glyph>
<glyph name="tilde_macron.uc" format="1">
  <advance width="619"/>
  <outline>
    <component base="tilde.uc" xOffset="42"/>
    <component base="macron.uc" xOffset="42" yOffset="153"/>
    <contour>
      <point x="293" y="694" type="move" name="_top"/>
    </contour>
  </outline>
</glyph>
